<svg
      width="100%"
      height="100%"
      viewBox="0 0 987 680"
      fill="none"
      xmlns="http://www.w3.org/2000/svg"
    >
      <g filter="url(#filter0_d_2_1004)">
        <path
          d="M226.078 73.8714L226.47 82.5196L224.218 89.0617L220.611 95.1558L217.452 101.922L216.321 106.661H213.845L211.817 106.885L210.238 108.464L209.566 111.399L210.473 116.586L211.829 119.521L212.736 122.68L210.025 123.587L206.642 121.784L203.931 123.363L201.903 127.878L199.192 132.616L196.717 135.327L193.334 133.3L192.886 128.785L192.661 121.795L191.306 119.991V116.127H193.11L194.465 119.286L196.493 120.417L199.652 119.286L201.231 115.902V111.388L202.363 107.781L198.968 105.753L195.361 102.818L194.689 100.107L196.717 97.8555L198.744 97.4074L200.996 98.5389L201.22 89.297L204.379 88.8489L204.155 85.2417L201.444 84.5696L197.165 83.8974L195.585 85.0289L193.782 87.2805L191.306 88.412L192.886 85.9363L196.045 80.0775L198.072 77.1425L196.941 73.7594L194.689 70.6003L195.361 66.321L196.493 62.4898L200.301 55.2867L226.078 73.8714ZM183.151 47.658L182.949 51.6348L181.145 55.2419L180.921 60.6526L176.642 64.4838L174.39 68.091L174.166 74.6331L171.231 77.5681L169.876 83.8862L166.493 89.297L164.241 95.3798L163.793 100.566L164.017 107.333L165.373 110.492L167.624 114.547L167.176 117.482L163.793 126.948L164.241 132.807L166.717 138.666L169.193 141.601L172.576 143.18L177.09 144.984L180.473 145.208L183.408 147.459L185.66 148.132L186.791 145.88L188.595 145.432L191.306 145.656L193.334 144.748L198.968 142.945L201.903 141.589L203.707 142.721L204.614 146.776L202.587 149.252L199.416 151.302L200.548 155.357L203.024 156.488L205.051 158.516L210.91 159.423L213.845 161.899L217.228 162.347L223.994 163.019L228.957 163.243L233.012 160.768L235.723 162.347L237.079 163.479L241.358 162.571L243.61 161.899L247.665 163.255L253.3 162.123L258.71 160.32L266.608 157.161L267.28 154.226H271.111L272.467 152.198L271.347 150.182L273.15 146.35L280.14 140.716L285.327 135.529L288.486 129.894L289.393 125.615L288.262 124.035L286.458 122.456L285.327 120.204L289.674 119.812L313.96 137.344L316.436 145.241L323.236 152.108L330.394 160.745L330.719 161.462L331.436 162.123L334.27 165.495L340.655 173.348L359.509 196.761L361.335 198.508L361.951 198.564L368.504 210.327L385.789 215.009L354.804 273.485L353.392 291.151L360.943 304.762L346.548 312.716L369.983 344.833L385.431 366.319L373.176 371.987L370.319 373.343L369.591 373.13L369.288 372.884L364.18 364.583L362.5 361.48L353.538 351.61L350.088 349.471L346.144 347.387L336.118 345.079L332.713 345.057L332.018 345.281L330.461 346.144L329.587 347.141L328.277 349.717L327.705 351.812L326.899 352.675H325.23L322.709 351.061L322.429 349.762L322.015 348.787L319.752 346.244L318.956 345.561L318.127 345.236L315.708 344.833L314.128 344.183L307.452 339.097L298.232 330.909L296.473 329.228L292.721 324.859L286.929 319.449L286.156 319.101L285.405 318.373L284.991 317.858L281.541 311.82L281.081 309.064L281.037 306.118L280.846 305.468L280.409 304.93L274.494 303.676L269.722 305.233L267.594 306.174L264.603 312.033L264.356 311.439L263.796 310.767L263.18 310.33L260.469 309.4L259.562 308.829L257.568 306.375L257.377 306.42L257.008 306.028L256.022 306.252L254.61 304.863L254.397 303.956L254.61 303.575L255.238 303.071L258.397 302.847L258.789 302.343L258.565 301.446L257.993 300.629L257.534 299.542L257.288 298.489L257.108 295.946L255.697 294.109L255.663 293.358L255.865 292.821L257.086 292.171L257.556 292.384L258.509 292.496L259.024 292.373L259.528 291.891L259.808 291.454L259.831 290.737L259.282 289.404L258.744 288.777L257.635 288.104L255.674 287.836L255.025 287.567L254.106 286.771L253.176 285.517L252.415 283.993L251.709 283.366L249.502 282.649L248.337 281.708L247.99 282.324L247.474 283.926L247.071 284.318L246.511 284.329L244.495 283.713L243.733 283.321L243.217 283.343L242.613 283.108L240.406 283.063L238.647 283.478H236.955L235.454 283.657L227.153 283.769L226.515 283.265L225.697 281.697L224.969 281.361L223.983 280.173L219.457 275.659L219.413 275.211L219.928 273.822L219.805 272.444L215.985 267.459L215.458 266.943L214.215 266.204L213.767 266.137L212.546 266.473L211.47 267.335L210.832 267.604L207.919 267.414L207.135 267.167L205.365 266.204L202.822 265.465L202.071 265.106L200.133 263.426L195.44 258.273L190.051 252.279L186.601 247.911L186.063 247.429L186.03 248.381L185.682 249.703L185.794 250.319L186.791 251.316L186.836 251.641L186.646 252.223L186.265 252.47L185.794 252.459L185.178 252.111H184.473L183.901 252.817V253.008L184.674 253.646L184.965 254.117L184.495 256.559L184.148 257.108L183.599 257.444L182.311 257.029L179.342 257.589L178.143 257.657L176.665 256.94L175.309 256.671L173.976 256.032L172.307 255.573L169.058 254.901L168.05 254.934L166.459 255.573L165.294 256.245L162.684 258.418L161.99 258.486L161.53 258.878L161.329 259.651L161.687 260.502L163.771 262.014L166.426 263.504L167.535 263.93L169.047 264.21L169.551 264.815L172.542 271.76L173.998 274.057L174.637 274.818L174.85 275.872L174.805 277.227L175.298 277.675L175.892 277.529L179.42 279.748L180.496 280.633L180.641 281.428L180.07 282.593L179.656 282.884L179.174 282.907L176.81 282.346L174.715 282.772L174.503 282.022L174.637 279.759L174.514 278.582L173.606 275.379L172.811 273.878L171.814 272.768L170.414 271.827L164.981 270.427L164.084 270.483L161.642 271.749L160.186 272.287L159.973 272.175L159.76 271.368L158.73 270.64L158.405 270.226L158.102 268.881L157.15 268.041L156.075 267.839L154.473 268.187L153.364 268.949L152.77 268.937L152.468 269.262L152.019 271.312L151.695 272.152L151.336 272.007L150.507 271.043L150.014 270.92L149.264 271.167L149.017 271.603L148.704 273.34L149.084 274.214L150.081 275.132L150.574 275.939L150.944 277.149L150.922 277.754L150.507 278.93L150.541 280.509L150.272 281.753L150.406 283.489L150.182 285.293L149.981 285.965L149.6 286.402L149.073 286.581L148.121 286.547L146.261 285.774L145.769 285.886L145.455 286.469L145.074 287.813L145.858 289.157L146.351 290.39L146.138 290.86L145.164 290.995L141.736 290.412L138.834 291.409L136.852 292.451L136.023 292.653L135.35 292.63L133.536 291.521L131.441 291.107L128.875 290.905L123.084 291.219L120.888 292.036L118.065 293.426L115.612 295.218L114.2 296.439L112.946 298.243L112.487 299.217L111.725 300.998L110.526 304.729L109.843 305.681L108.577 306.913L107.782 307.395L106.247 307.966L103.827 308.683L103.009 309.176L102.046 310.061L101.015 312.212L100.668 314.497L100.164 316.547L100.22 319.628L100.556 322.63L100.399 325.688L101.027 328.343L101.475 329.452L101.9 330.012L101.878 330.281L102.281 330.46L102.875 331.614L103.144 332.902L103.245 333.799L103.021 335.165V337.787L103.491 341.304L103.827 342.413L104.253 343.22L106.325 346.177L107.345 346.2L109.529 345.527L110.011 345.976L110.056 346.558L109.697 347.353L109.249 347.802L108.655 348.171L106.437 348.944L105.496 349.829L104.981 350.815L104.936 352.495L104.578 353.246L104.029 353.851L103.413 354.176H101.934L99.9175 353.683L95.4814 353.302L90.8324 352.641L83.2709 352.17L79.0476 352.081L72.4606 351.319L68.551 351.028L66.445 351.039L60.6422 350.513L50.0896 350.076L50 89.5546L51.7028 89.1177L53.3047 88.412L87.0685 77.3777L87.0909 77.2321L88.9616 76.9072L89.3425 76.5151L90.474 76.1342L105.194 71.4293L154.103 56.3061L161.553 53.8192L164.04 53.3039L183.151 47.658Z"
          fill="url(#paint0_linear_2_1004)"
          stroke="white"
          stroke-opacity="0.22"
          stroke-width="0.5"
        />
        <path
          d="M200.29 55.2643L196.481 62.4562L195.361 66.2986L194.678 70.5779L196.941 73.7369L198.061 77.12L196.033 80.055L192.874 85.9138L191.295 88.3896L193.782 87.2693L195.585 85.0065L197.165 83.8862L201.444 84.5584L204.155 85.2305L204.379 88.8489L201.22 89.297L200.996 98.5389L198.744 97.4074L196.717 97.8667L194.678 100.118L195.361 102.829L198.968 105.753L202.351 107.781L201.22 111.399V115.902L199.64 119.286L196.481 120.417L194.454 119.286L193.109 116.126H191.295V119.958L192.65 121.761L192.874 128.752L193.333 133.266L196.717 135.294L199.192 132.594L201.903 127.855L203.931 123.341L206.631 121.761L210.014 123.565L212.725 122.669L211.817 119.51L210.462 116.575L209.566 111.399L210.238 108.464L211.817 106.885L213.845 106.661H216.332L217.452 101.922L220.611 95.1558L224.218 89.0729L226.481 82.5308L226.078 73.8714L289.685 119.79L285.327 120.193L286.458 122.445L288.262 124.024L289.393 125.604L288.486 129.883L285.327 135.518L280.14 140.704L273.15 146.35L271.346 150.182L272.478 152.209L271.122 154.237H267.291L266.619 157.172L258.721 160.331L253.311 162.134L247.676 163.255L243.609 161.899L241.358 162.582L237.079 163.479L235.723 162.358L233.012 160.779L228.957 163.255L223.994 163.031L217.228 162.358L213.845 161.899L210.921 159.423L205.051 158.527L203.023 156.488L200.548 155.368L199.416 151.302L202.575 149.274L204.603 146.798L203.707 142.732L201.903 141.612L198.968 142.967L193.333 144.771L191.295 145.667L188.595 145.443L186.791 145.891L185.66 148.154L183.408 147.471L180.473 145.219L177.09 144.995L172.587 143.191L169.204 141.612L166.717 138.677L164.241 132.818L163.793 126.948L167.176 117.482L167.624 114.547L165.372 110.492L164.017 107.333L163.793 100.566L164.241 95.3798L166.493 89.297L169.876 83.8862L171.231 77.5681L174.166 74.6331L174.39 68.1022L176.642 64.495L180.933 60.6526L181.157 55.2419L182.96 51.6348L183.151 47.6579L187.463 46"
          fill="url(#paint1_linear_2_1004)"
        />
        <path
          d="M200.29 55.2643L196.481 62.4562L195.361 66.2986L194.678 70.5779L196.941 73.7369L198.061 77.12L196.033 80.055L192.874 85.9138L191.295 88.3896L193.782 87.2693L195.585 85.0065L197.165 83.8862L201.444 84.5584L204.155 85.2305L204.379 88.8489L201.22 89.2969L200.996 98.5389L198.744 97.4074L196.717 97.8667L194.678 100.118L195.361 102.829L198.968 105.753L202.351 107.781L201.22 111.399V115.902L199.64 119.286L196.481 120.417L194.454 119.286L193.109 116.126H191.295V119.958L192.65 121.761L192.874 128.752L193.333 133.266L196.717 135.294L199.192 132.594L201.903 127.855L203.931 123.341L206.631 121.761L210.014 123.565L212.725 122.669L211.817 119.51L210.462 116.575L209.566 111.399L210.238 108.464L211.817 106.885L213.845 106.661H216.332L217.452 101.922L220.611 95.1558L224.218 89.0729L226.481 82.5308L226.078 73.8714L289.685 119.79L285.327 120.193L286.458 122.445L288.262 124.024L289.393 125.604L288.486 129.883L285.327 135.518L280.14 140.704L273.15 146.35L271.346 150.182L272.478 152.209L271.122 154.237H267.291L266.619 157.172L258.721 160.331L253.311 162.134L247.676 163.255L243.609 161.899L241.358 162.582L237.079 163.479L235.723 162.358L233.012 160.779L228.957 163.255L223.994 163.031L217.228 162.358L213.845 161.899L210.921 159.423L205.051 158.527L203.023 156.488L200.548 155.368L199.416 151.302L202.575 149.274L204.603 146.798L203.707 142.732L201.903 141.612L198.968 142.967L193.333 144.771L191.295 145.667L188.595 145.443L186.791 145.891L185.66 148.154L183.408 147.471L180.473 145.219L177.09 144.995L172.587 143.191L169.204 141.612L166.717 138.677L164.241 132.818L163.793 126.948L167.176 117.482L167.624 114.547L165.372 110.492L164.017 107.333L163.793 100.566L164.241 95.3798L166.493 89.2969L169.876 83.8862L171.231 77.5681L174.166 74.6331L174.39 68.1022L176.642 64.495L180.933 60.6526L181.157 55.2419L182.96 51.6348L183.151 47.6579L187.463 46"
          stroke="white"
          stroke-opacity="0.22"
          stroke-width="0.5"
        />
        <path
          d="M807.77 373.892L806.078 371.909L804.734 371.327L805.036 370.912L804.218 371.528L803.916 372.066L804.129 372.817L805.26 372.85L806.627 373.858L810.189 378.687L810.413 378.295L809.696 376.525L808.834 375.427L807.77 373.892Z"
          fill="url(#paint2_linear_2_1004)"
          stroke="white"
          stroke-opacity="0.22"
          stroke-width="0.5"
        />
        <path
          d="M890.263 406.21L890.14 402.166L889.793 401.225L885.301 399.791L882.78 399.287L882.511 399.478H882.142L871.779 397.719L869.27 393.843L868.576 393.115L865.192 391.367L860.532 390.695L860.308 392.32L856.914 387.301L859.042 385.945L856.578 382.954L858.852 380.826L860.185 379.93L869.808 377.476L873.93 377.51L874.569 377.801L875.387 378.429L879.117 379.258L880.752 379.426L886.219 378.933L886.813 378.63L887.261 378.126L888.672 371.55L888.941 371.718L889.692 371.707L892.885 370.195L893.736 369.993L895.103 368.963L896.368 367.574L897.141 367.495L897.309 367.697L898.788 368.089L899.875 368.851L900.872 368.907L901.757 369.355L902.72 369.254L903.594 369.444L904.333 369.803L904.625 371.114L904.513 371.842L903.594 373.544L903.605 373.791L903.807 374.037L903.975 374.015L904.49 373.208L904.748 373.152L905.017 373.119L905.543 373.388L906.014 373.825L907.492 376.356L908.142 377.129L908.366 379.37L909.229 379.986L910.573 380.378L912.063 381.106L913.822 381.756L914.438 381.532L916.477 381.857L917.53 381.408L918.56 381.196L919.322 381.431L921.798 380.804L922.604 380.826L923.523 381.33L925.226 383.201L925.651 384.377L925.842 384.545L926.581 384.724L927.152 384.68L927.881 384.399L928.093 384.063L928.81 383.694L929.258 383.156L929.908 383.134L930.3 382.898L930.132 382.293L929.483 381.845L929.09 381.296L929.572 379.706L929.83 379.448L930.311 379.459L931.443 381.095L932.451 381.319L933.717 382.17L934.781 381.588L936.462 381.666L936.943 382.092L937.201 383.178L936.719 385.128L936.238 385.811L935.733 386.158L932.507 387.514L930.648 387.783L929.942 388.757L928.642 389.653L927.074 390.527L926.167 390.718L926.111 390.975L925.136 391.199L923.635 392.028L922.515 393.104L920.789 393.664L919.524 393.496L918.639 393.619L918.291 394.022L918.235 394.381L918.392 394.874L918.818 395.389L918.852 395.77L918.023 396.453L917.911 396.924L918.112 399.993L918.034 401.192L917.306 401.427L916.723 401.091L915.648 399.993L913.967 399.612L913.609 400.027L913.553 400.878L912.578 401.584L912.421 401.853L912.186 403.421L911.536 404.62L910.786 404.799L910.315 404.754L908.758 403.499L907.112 403.421L906.339 402.995L905.319 402.021L904.748 401.819L903.986 402.144L903.751 402.099L902.216 400.228L901.6 399.108L900.043 397.797L899.595 397.585L898.497 398.066L897.265 398.078L896.817 398.682L896.985 398.996L898.239 399.422L898.598 399.769L899.113 400.923L900.289 401.281L900.749 401.909L900.704 402.525L900.312 402.973L899.158 403.085L898.855 403.298L898.665 403.869L898.822 404.373L900.032 404.25L900.323 404.664L900.581 406.311L901.129 406.905L901.398 407.745L900.121 410.736L900.435 411.666L900.356 412.383L900.166 412.562L899.83 412.629L898.172 412.204L897.668 411.901L895.932 410.109L895.203 409.593L894.879 409.481L893.982 409.818L893.624 409.582L893.064 408.787L892.739 408.552L891.731 408.563L891.428 408.44L891.227 407.992L891.596 406.726L891.529 406.446L891.025 406.143L890.263 406.21Z"
          fill="url(#paint3_linear_2_1004)"
          stroke="white"
          stroke-opacity="0.22"
          stroke-width="0.5"
        />
        <path
          d="M521.629 476.74L517.406 480.762L513.653 483.249L513.015 483.372L508.086 488.648L507.694 489.802L507.862 490.766L508.657 492.11L509.587 493.096L510.505 494.406L510.763 494.978L510.449 495.661L490.151 503.099L483.866 510.078L481.48 507.502L481.021 507.468L479.699 507.804L477.347 509.16L476.226 509.451L475.05 509.474L473.504 509.272L472.552 508.801L469.247 506.079L466.032 503.839L458.426 497.991L456.387 496.68L451.144 492.827L449.677 491.382L448.389 489.825L448.064 489.119L447.604 488.704L446.731 487.327L442.731 483.451L440.469 481.042L436.021 477.894L431.115 474.959L426.13 471.43L421.38 468.316L409.886 460.139L402.089 454.795L386.037 442.999L384.715 441.767L383.695 440.322L383.516 439.728L383.292 438.72L383.359 438.104L383.034 437.319L382.889 435.359L381.309 433.04L381.332 432.312L382.105 430.979L382.194 428.033L381.768 426.901L381.612 425.523L380.951 423.238L380.884 421.961L380.626 421.098L380.671 420.426L381.074 419.407L381.04 418.275L380.2 416.774L378.901 415.598L378.094 414.411L378.027 413.839L378.587 412.114L378.912 410.467L378.867 410.12L377.388 409.538L375.91 408.597L374.431 406.972L373.008 406.334L371.53 405.359L371.081 404.732L378.117 396.207L383.258 390.46L384.143 386.203L384.177 384.478L383.415 383.19L376.795 375.707L373.165 371.976L385.42 366.308L369.984 344.822L370.611 344.508L374.722 343.478L389.901 339.882L391.078 339.792L394.819 347.298L396.376 349.605L398.785 352.204L401.462 353.941L405.428 356.069L407.187 357.839L409.517 362.712L411.085 368.481L411.723 370.038L412.709 369.938L413.213 369.523L415.499 369.467L419.039 370.486L425.065 373.074L434.565 378.227L445.577 384.613L447.952 386.483L448.579 387.66L448.96 389.329L448.422 391.827L452.231 391.726L455.188 391.468L455.805 391.256L461.831 377.6L462.996 376.379L465.45 375.068L466.436 375.236L468.306 377.398L468.418 385.923L486.555 388.04L486.768 387.492L487.686 382.462L488.325 382.249L493.948 381.599L498.194 381.532L500.737 381.106L502.003 378.104L502.81 375.751L503.314 375.539L504.4 375.785L505.285 378.955L507.682 390.292L508.96 391.524L509.856 391.995L511.01 392.376L520.677 393.709L527.32 394.415L536.248 395.692L534.68 406.065L530.21 409.213L530.02 410.367L528.396 414.993L524.643 419.631L523.926 420.314L522.873 420.74L518.56 420.482L515.311 419.877L513.06 418.768L512.141 417.883L509.901 416.427L507.593 416.293L506.349 416.83L505.946 417.525L506.349 421.244L505.845 426.128L504.4 432.525L501.566 437.88L499.18 440.647L494.251 443.638L493.254 444.007L491.663 447.054L496.447 453.54L497.78 454.829L505.688 457.82L506.898 457.887L510.483 457.013L515.983 461.147L520.901 471.666L521.305 472.954L521.629 476.74Z"
          fill="url(#paint4_linear_2_1004)"
          stroke="white"
          stroke-opacity="0.22"
          stroke-width="0.5"
        />
        <path
          d="M804.499 418.477L804.611 417.738L804.353 417.122L803.524 416.383L800.264 414.915L798.438 414.545L797.318 414.097H796.96L795.951 414.579L795.47 414.545L794.954 414.31L794.585 413.896L794.069 412.652L793.744 412.305L793.431 412.193L793.263 411.364L792.243 409.381L792.176 408.698L792.322 408.474L793.229 408.227L794.349 407.32L795.682 407.073L796.915 406.435L799.211 405.628H800.107L800.634 405.169L800.768 404.262L801.261 403.769L801.418 402.772L801.631 402.324L802.079 402.077L802.74 401.988L803.603 402.066L804.14 401.663L804.947 401.64L805.429 401.461L806.403 400.218L807.647 397.731L808.05 397.305L808.778 397.103L809.54 396.286L810.111 396.095L810.279 395.781L810.738 395.692L811.198 395.132L812.284 394.885L812.732 395.199L813.091 395.233L813.147 394.493L812.945 393.384L813.293 393.127L813.606 393.407L814.346 393.362L814.838 392.712L815.175 391.592L815.824 390.998L815.891 390.707L816.272 390.606L816.564 390.315L822.019 388.914L825.794 388.231L833.367 388.119V388.366L832.953 388.948L831.429 390.808L832.359 393.014L834.454 395.098L840.716 398.156L841.164 398.246L842.004 397.775L845.387 394.583L846.239 393.474L847.067 391.849L848.457 390.953L853.061 388.455L856.914 387.301L860.309 392.32L860.533 390.696L865.193 391.368L868.576 393.115L869.27 393.843L871.78 397.719L882.142 399.478H882.512L882.78 399.288L885.301 399.792L889.793 401.226L890.14 402.167L890.264 406.211L889.715 406.256L888.516 405.964L888.079 406.054L887.508 407.6L887.172 408.16L886.466 408.832L885.951 409.101L885.536 409.179L884.875 408.955L883.878 408.294L883.363 409.46L883.867 411.375L883.71 411.756L882.993 412.551L882.915 413.19L882.59 413.638L881.055 414.097L879.89 415.598L879.319 416.024L878.423 417.29L877.09 417.872L876.048 418.836L875.913 419.127L876.149 419.687L877.247 419.945L878.344 420.942L878.266 421.491L877.023 422.645L876.507 423.854L876.182 424.213L875.443 424.583L874.748 424.56L873.326 423.53L871.063 423.003L870.525 423.44L870.38 423.978L870.436 424.28L871.265 425.546L871.287 426.14L870.447 426.7L869.842 426.666L867.052 428.447L865.574 428.918L864.543 429.657L864.151 429.724L863.871 429.568L863.356 428.615L862.874 428.044L862.605 427.966L862.202 427.518L862.034 427.114L862.224 424.986L862.011 424.079L861.25 423.059L860.667 422.656L859.805 422.566L858.427 422.701L858.303 423.642L858.572 425.244L858.337 426.308L858.427 426.935L858.292 427.159L857.967 427.126L857.06 426.05H855.94L855.324 426.263L854.293 425.613L852.31 424.728L852.064 424.123L852.277 422.611L852.008 422.029L850.551 421.995L848.826 421.547L848.121 420.987L846.899 419.609L846.44 419.306L845.891 419.138L845.331 419.385L844.637 419.452L844.457 419.105L844.558 418.668L844.2 418.388L842.486 419.105L841.646 419.217L841.343 419.105L841.175 418.802L841.153 417.682L839.428 417.805L838.296 417.424L837.176 417.324L836.246 417.447L834.7 417.962L833.602 417.94L832.919 418.175L830.051 420.169L827.867 420.561L825.548 421.569L825.044 421.894L824.887 422.197L825.234 423.227L825.111 424.314L822.445 424.392L820.26 424.784L819.958 424.683L818.054 426.095L815.287 427.327L813.517 427.697L811.948 427.831L808.442 428.604L807.512 428.223L806.19 425.826L805.832 424.84L805.025 424.403L804.431 423.35L804.577 423.227L804.656 421.793L805.07 420.684L804.454 418.724L804.499 418.477Z"
          fill="url(#paint5_linear_2_1004)"
          stroke="white"
          stroke-opacity="0.22"
          stroke-width="0.5"
        />
        <path
          d="M700.161 467.028L699.623 467.308L699.388 469.033L699.029 470.176L698.111 470.994L696.901 470.568L695.613 470.859L692.297 470.333L690.213 471.24L689.776 471.106L688.891 470.254L688.32 469.986L686.729 469.627L684.746 469.392L683.335 469.549L682.293 469.84L681.464 469.694L680.321 469.033L679.493 469.145L676.994 468.966L675.908 468.428L675.079 468.216L673.858 468.316L673.186 468.148L671.953 467.196L670.934 466.782L669.399 466.692L668.369 466.804L666.274 465.863L665.198 464.877L663.652 464.788L660.93 462.939L660.146 463.376L658.791 463.735L656.629 462.805L656.181 462.794L655.195 463.936L653.974 464.362L653.257 464.866L652.204 466.58L651.554 466.759L649.952 466.793L645.493 468.462L645.359 469.224L645.583 471.027L645.124 471.599L642.637 470.983L642.122 471.106L641.729 472.002L641.707 473.469L642.066 474.041L636.991 469.761L635.837 468.585L635.109 467.51L634.874 466.446L634.851 461.785L634.963 461.371L638.57 455.501L639.422 454.482L640.195 453.877L642.615 452.723L644.34 452.297L645.796 452.129L645.706 450.986L644.508 444.31L644.272 444.041L630.975 441.207L625.587 440.759L623.212 439.863L616.681 435.46L616.289 431.304L616.401 430.912L617.79 430.587L618.059 430.408L618.563 428.907L618.642 427.999L617.028 424.851L614.945 422.992L614.004 418.399L613.892 413.996L614.049 413.134L614.978 411.084L614.967 409.851L613.892 407.409L608.727 407.297L600.001 406.267L600.819 404.262L605.781 394.639L609.276 388.679L609.59 387.85L607.831 380.165L607.574 379.572L607.294 379.314L602.51 378.138L601.446 377.488L600.639 376.065L599.374 364.146L606.89 363.9L607.215 360.617L607.462 360.662L608.044 355.33L627.536 356.797L632.734 357.38L635.781 357.391L636.733 358.018L637.708 358.164L639.108 357.705L640.531 357.481L657.794 358.007L659.373 359.452L660.348 359.71L662.644 362.499L666.363 365.95L668.01 364.493L668.951 365.826L672.368 363.608L673.914 365.053L674.575 364.762L675.46 365.289L672.693 365.882L671.113 367.54L672.67 371.405L671.012 373.052L671.102 378.9L666.543 379.068L665.725 381.622L667.338 383.862L670.071 384.624L676.535 388.433L680.557 392.947L684.802 394.448L685.295 394.874L685.105 398.055L684.724 398.739L682.64 398.627L680.288 399.232L679.75 404.71L679.929 405.012L682.293 403.869L682.663 403.757L682.842 403.981L682.674 404.844L681.811 407.085L676.266 419.452L676.042 421.155L676.21 422.23L676.591 423.238L677.33 424.325L677.689 424.381L685.026 424.728L690.146 424.538L694.649 423.619L697.203 422.734L705.191 420.897L705.538 421.659L704.406 428.839L702.67 429.153L702.569 429.31L699.332 430.251L699.063 430.923L700.026 431.819L702.961 433.544L704.339 433.511L706.748 433.007L708.215 432.379L711.43 431.472L712.808 430.856L716.651 429.859L718.533 429.624L722.061 429.5L723.002 430.229L723.462 431.662L723.966 434.329L723.607 435.068L722.767 435.135L721.053 434.732L720.045 434.721L719.205 434.754L717.502 435.146L716.191 436.132L715.956 437.297L715.788 437.432L715.273 437.14L714.937 435.695L714.119 434.463L713.391 434.351L712.741 434.575L712.472 434.889L712.438 435.482L712.831 436.121L713.884 437.174L713.94 437.88L713.48 439.392L713.514 439.728L715.194 441.296L718.118 444.926L718.723 446.158L718.768 446.998L718.544 447.771L717.748 448.578L716.841 448.69L716.146 448.343L715.474 447.29L715.396 445.296L713.884 441.7L713.077 440.714L712.629 440.635L712.102 440.882L711.968 441.33L712.058 442.562L713.223 444.78L714.13 446.931L714.164 447.704L713.76 448.6L713.357 448.903L712.326 449.138L711.99 449.575L711.688 451.177L711.419 451.423L710.904 451.547L710.276 451.076L709.929 449.653L709.055 448.656L708.54 448.511L706.893 449.889L706.322 449.552L704.978 449.384L704.877 450.673L705.213 452.544L704.855 454.011L704.306 454.963L704.026 455.994L703.689 456.621L702.973 456.924L702.267 456.968L701.796 457.54L702.099 458.257L704.205 461.259L703.902 463.186L701.247 466.188L700.161 467.028Z"
          fill="url(#paint6_linear_2_1004)"
          stroke="white"
          stroke-opacity="0.22"
          stroke-width="0.5"
        />
        <path
          d="M889.12 362.23L888.56 361.289L888.045 360.964L887.541 360.886L887.037 361.155L885.86 360.763L885.009 360.729L882.903 362.253L882.511 362.342L881.749 362.006L879.8 360.751L878.523 360.404L877.156 360.247L875.857 361.132L875.341 360.886L874.714 360.83L872.899 360.102L872.541 359.642L872.563 358.657L871.936 358.589L871.521 358.365L871.443 358.13L872.16 355.89L873.191 354.086L874.064 353.19L874.591 352.271L875.218 350.759L875.162 350.479L873.952 349.829L873 348.675L872.686 347.947L872.832 346.491L872.675 346.076L872.25 345.763L871.79 346.032L871.409 346.659L870.502 346.849L870.222 346.659L870.155 346.446L870.446 344.99L869.751 343.802L868.183 342.29L867.007 339.814L866.592 339.702L866.436 339.837L866.312 341.73L866.122 342.021L865.775 342.1L865.539 341.64L865.427 340.879L865.08 340.576L864.654 340.542L863.949 341.047L863.814 341.495L864.274 342.234L864.206 342.861L863.904 343.097L863.433 342.805L862.974 342.01L862.862 341.495L862.963 341.013L863.904 339.781L864.419 338.851L864.498 338.324L864.229 336.745L864.374 336.409L864.307 335.58L864.789 334.572L864.397 333.888L863.12 333.832L862.716 333.944L861.854 334.751L861.002 336.274L860.51 336.834L859.098 337.316L858.829 337.708L858.885 338.179L859.244 338.448L860.521 338.571L861.159 338.828L861.719 339.702L861.865 340.464L861.484 341.831L860.991 342.738L860.946 343.197L861.843 344.575L861.518 345.315L860.778 346.121L860.375 346.905L860.073 348.003L859.826 348.014L859.423 347.734L859.132 348.014L858.773 348.821L858.101 349.37L857.911 350.02L857.72 350.064L857.44 351.129L857.014 351.487L856.342 351.308L855.659 350.535L855.211 350.288L854.225 350.266L853.755 350.658L853.004 350.815L852.085 350.244L851.727 350.322L850.114 352.249L850.058 352.708L850.338 353.571L850.047 354.523V355.117L850.248 355.531L851.212 355.946L851.548 356.752L850.551 358.993L850.192 361.222L849.397 363.025L849.363 363.44L848.209 364.695L847.616 364.739L847.324 364.549L847.156 364.224L846.899 362.241L846.641 361.692L845.756 360.763L845.319 360.55L844.714 360.561L844.143 360.897L843.751 361.356L843.493 362.936L843.045 363.787L842.149 364.627L841.578 364.762L841.152 364.639L840.995 364.303L841.242 361.625L840.95 360.023L840.659 359.553L839.595 358.847L839.259 358.802L838.564 359.127L838.419 359.575L838.463 360.18L838.116 360.438L837.802 360.371L837.321 359.183L836.962 359.172L836.57 359.508L836.044 360.315L835.506 360.292L835.215 360.46L834.285 361.446L833.725 361.771L833.277 361.804L831.921 361.323L831.462 360.908L830.779 359.766L829.882 359.553L828.505 358.657L827.844 358.69L824.864 360.718L824.236 360.494L823.632 359.116L822.601 358.152L821.638 357.548L820.988 356.595L820.394 356.035L820.092 355.99L819.296 356.349L818.77 357.111L817.84 359.418L817.504 359.911L817.134 360.09L816.171 359.698L815.611 359.015L815.364 358.007L815.398 356.786L816.227 355.722L816.428 355.049L816.316 354.657L815.622 353.638L815.342 352.809L815.263 350.804L815.734 349.773L816.014 348.474L815.465 346.177L812.608 341.607L812.138 340.296L811.925 340.117L810.57 339.736L810.222 339.769L808.945 340.722L807.567 340.654L805.865 341.192L804.767 342.133L804.308 342.962L802.426 344.519H800.095L799.535 343.914L798.774 346.076L795.447 350.681L796.197 358.858L798.337 361.793L799.076 363.294L799.345 365.904L799.378 367.865L799.21 368.851L799.435 369.321L799.939 369.299L800.756 369.747L801.059 370.509L802.291 371.506L802.37 372.2L802.728 372.469L803.714 373.802L804.476 373.825L805.092 375.359L806.223 376.76L806.66 377.757L807.904 379.605L808.419 380.927L808.721 380.938L808.856 381.352L809.942 382.282L810.57 383.817L811.499 384.164L812.093 384.691L812.911 385.8L812.373 386.225L812.183 386.125L811.858 386.326L811.948 386.685L811.735 387.01L811.32 387.122L810.682 386.842L810.155 385.486L809.741 386.875L809.785 387.671L810.144 388.388L811.074 388.119L812.452 388.231L813.404 388.735L813.09 388.936L814.098 388.981L814.58 389.239L815.7 390.191L815.947 390.74L816.328 390.639L816.619 390.348L822.074 388.948L825.861 388.264L833.422 388.152V388.399L833.008 388.981L831.484 390.841L832.414 393.048L834.52 395.12L840.771 398.178L841.219 398.268L842.071 397.797L845.454 394.605L846.305 393.485L847.145 391.86L848.523 390.975L853.127 388.477L856.981 387.323L859.109 385.968L856.645 382.977L858.919 380.86L860.263 379.963L869.886 377.51L873.997 377.544L874.647 377.824L875.465 378.451L879.195 379.291L880.831 379.459L886.297 378.966L886.891 378.664L887.339 378.149L888.751 371.584L888.28 371.293L887.776 370.643L887.955 370.273L889.367 369.937L889.96 369.478L890.487 368.335L889.983 367.417L889.12 362.23ZM810.189 378.686L806.626 373.858L805.26 372.85L804.128 372.816L803.915 372.055L804.218 371.528L805.036 370.901L804.733 371.326L806.078 371.898L807.769 373.881L809.707 376.513L810.424 378.283L810.189 378.686Z"
          fill="url(#paint7_linear_2_1004)"
          stroke="white"
          stroke-opacity="0.22"
          stroke-width="0.5"
        />
        <path
          d="M608.043 355.329L607.46 360.662L607.214 360.617L606.889 363.899L599.372 364.146L600.638 376.065L601.445 377.488L602.509 378.137L607.292 379.314L607.573 379.571L607.83 380.165L609.589 387.85L609.275 388.679L605.78 394.638L600.818 404.261L600 406.266L598.588 402.379L596.505 399.399L595.418 398.145L594.768 397.842L592.405 399.993L589.772 401.438L588.226 401.561L586.176 401.281L585.011 400.396L583.857 398.66L582.524 398.559L581.281 398.772L580.261 399.982L577.853 405.225L577.192 410.725L577.472 411.117L578.077 411.341L578.491 412.148L578.301 414.691L577.315 421.546L576.352 423.047L573.775 429.847L573.999 430.945L574.895 431.057L576.497 430.026L577.416 430.105L577.618 430.609L577.461 431.864L576.979 432.558L573.069 436.244L571.243 437.095L561.262 439.257L559.895 439.033L553.869 436.457L551.527 435.18L551.012 434.015L549.892 432.278L543.753 429.959L542.621 429.769L542.039 430.082L541.647 430.721L541.468 431.505L541.524 432.592L541.053 439.089L539.003 445.295L538.208 446.74L537.625 447.076L536.964 447.088L533.772 446.102L532.651 445.553L522.961 448.824L522.401 449.216L522.312 449.631L522.681 450.493L524.339 452.207L525.426 453.114L526.479 454.739L527.991 460.586L527.801 461.673L527.23 463.309L525.919 465.93L525.874 466.636L526.064 467.543L526.972 469.571L529.347 473.828L528.899 474.309L528.305 474.544L525.392 474.993L523.835 475.407L522.939 475.833L521.628 476.74L521.303 472.954L520.9 471.666L515.982 461.147L510.482 457.013L506.897 457.887L505.687 457.819L497.779 454.828L496.446 453.54L491.662 447.054L493.253 444.007L494.25 443.637L499.179 440.646L501.565 437.879L504.399 432.525L505.844 426.128L506.348 421.244L505.945 417.525L506.348 416.83L507.592 416.292L509.9 416.427L512.14 417.883L513.059 418.768L515.31 419.877L518.559 420.482L522.872 420.74L523.925 420.314L524.642 419.631L528.395 414.993L530.019 410.366L530.209 409.213L534.679 406.065L536.247 395.691L527.319 394.414L520.676 393.709L511.009 392.376L509.855 391.995L508.959 391.524L507.681 390.292L505.284 378.955L504.399 375.785L503.313 375.538L502.808 375.751L502.002 378.104L500.736 381.106L498.193 381.532L493.947 381.599L488.324 382.249L487.685 382.461L486.767 387.491L486.554 388.04L468.417 385.923L468.305 377.398L466.435 375.236L465.449 375.068L462.995 376.379L461.83 377.6L455.804 391.255L455.187 391.468L452.23 391.726L448.421 391.827L448.959 389.328L448.578 387.659L447.951 386.483L445.576 384.612L434.564 378.227L425.064 373.074L419.038 370.486L415.498 369.467L413.212 369.523L412.708 369.937L411.722 370.038L411.084 368.481L409.516 362.712L407.186 357.839L405.427 356.069L401.461 353.94L398.784 352.204L396.375 349.605L394.818 347.297L391.077 339.792L389.9 339.881L374.721 343.477L370.61 344.508L369.983 344.822L346.547 312.705L360.942 304.751L353.392 291.14L354.803 273.474L385.789 214.987L368.493 210.304L361.939 198.553L409.392 189.311L432.301 185.267L436.199 186.029L439.571 186.432L450.438 187.608L457.081 188.034L459.769 188.505L475.654 189.726L490.934 190.476L491.158 190.308L492.11 190.263L503.895 184.472L511.737 181.044L516.643 178.59L518.951 178.019L520.161 177.896L522.032 177.974L522.961 178.333L523.813 178.983L524.922 180.26L531.341 194.397L533.604 196.537L537.636 200.726L549.825 211.57L551.505 218.37L558.943 242.332L573.025 235.7L573.417 270.763L573.361 278.84L572.711 278.638L570 277.26H569.72L569.608 284.654L568.588 285.886L568.252 304.527L568.331 306.935L595.373 310.207L599.272 354.68L608.043 355.329Z"
          fill="url(#paint8_linear_2_1004)"
          stroke="white"
          stroke-opacity="0.22"
          stroke-width="0.5"
        />
        <path
          d="M521.63 476.74L522.941 475.833L523.837 475.407L525.394 474.993L528.307 474.545L528.9 474.309L529.349 473.828L530.122 474.007L549.782 474.601L551.451 474.399L552.918 473.783L554.52 472.584L554.733 472.282L554.778 471.912L559.606 472.898L563.303 477.166L566.406 482.375L566.507 484.044L566.753 484.279L567.56 484.559L571.01 485.433L572.724 485.388L575.2 483.842L578.863 481.972L587.321 479.877L588.026 480.056L589.337 480.896L591.185 482.509L593.023 483.798L593.796 484.167L594.132 484.156L598.209 482.409L599.128 481.333L600.36 479.339L601.29 478.275L602.197 477.961L603.53 477.894L613.131 479.608L613.836 480.359L614.385 481.837L614.262 483.249L613.747 485.153L613.814 485.803L614.184 486.341L615.225 486.934L617.343 487.102L621.689 486.833L622.608 486.598L623.078 486.061L623.202 485.668L623.123 483.674L623.605 483.137L624.591 483.081L629.587 484.503L632.455 485.724L636.756 487.058L638.605 487.416L639.725 487.158L640.151 488.928L641.708 491.628L642.526 492.468L643.601 493.062L645.573 493.476L646.267 493.936L647.219 494.261L648.116 494.283L649.269 494.037L650.479 494.249L651.622 494.776L652.35 496.647L652.988 496.904L654.77 496.994L655.083 497.319L655.072 497.957L654.68 498.529L654.445 501.329L654.938 502.741L655.083 505.037L655.52 505.665L654.624 506.583L653.526 507.233L649.057 507.491L648.093 507.782L647.522 508.062L646.771 508.7L646.267 509.641L646.2 510.089L646.805 513.607L647.947 515.959L648.373 516.475L648.541 517.057L648.687 521.762L647.186 526.579L646.581 526.378L645.001 524.776L643.881 524.417L642.279 524.339L641.002 524.708L640.498 525.089L639.837 525.806L638.93 527.263L637.597 529.75L627.638 539.697L626.831 543.45L626.652 545.153L626.237 546.721L625.733 547.696L623.022 550.418L620.972 551.852L617.007 553.924L604.034 567.479L603.553 568.879L602.388 573.663L602.69 574.671L600.013 571.545L598.837 570.795L597.179 570.111L593.605 569.719L590.659 570.638L590.02 570.705L588.609 570.336L587.231 569.137L584.105 567.3L582.055 564.981L580.61 562.371L580.084 562.035L577.955 561.911L574.035 560.758L573.329 560.309L572.769 559.223L571.458 558.775L570.483 558.629L569.632 557.733L569.106 557.543L567.571 557.621L566.641 557.318L565.633 556.646L563.493 554.451L562.485 554.182L561.286 554.193L560.2 554.495L559.382 556.064L558.755 555.985L558.598 556.097L558.419 556.814L558.004 557.005H557.41L552.168 555.929L541.044 551.538L538.859 550.283L531.679 545.657L529.606 543.988L526.582 541.165L518.057 532.651L517.407 532.214L514.349 530.814L510.428 529.324L507.134 527.789L505.196 526.378L504.513 525.638L494.453 519.421L491.406 517.293L485.2 511.546L483.867 510.078L490.152 503.099L510.45 495.661L510.764 494.978L510.506 494.406L509.588 493.096L508.658 492.11L507.863 490.765L507.694 489.802L508.087 488.648L513.016 483.372L513.654 483.249L517.407 480.762L521.63 476.74Z"
          fill="url(#paint9_linear_2_1004)"
          stroke="white"
          stroke-opacity="0.22"
          stroke-width="0.5"
        />
        <path
          d="M646.713 485.108L646.589 485.445L644.797 485.097L643.71 485.333L639.98 486.621L639.722 486.946V487.159L638.602 487.416L636.754 487.058L632.452 485.725L629.584 484.504L624.588 483.081L623.602 483.137L623.121 483.675L623.199 485.669L623.076 486.061L622.605 486.598L621.687 486.834L617.34 487.103L615.223 486.934L614.181 486.341L613.811 485.803L613.744 485.153L614.26 483.249L614.383 481.837L613.834 480.359L613.128 479.608L603.528 477.894L602.195 477.961L601.287 478.275L600.357 479.339L599.125 481.333L598.207 482.409L594.129 484.156L593.793 484.168L593.02 483.798L591.183 482.51L589.334 480.896L588.024 480.056L587.318 479.877L578.86 481.972L575.197 483.843L572.721 485.389L571.007 485.433L567.557 484.56L566.75 484.279L566.504 484.044L566.403 482.375L563.3 477.166L559.603 472.898L554.775 471.912L554.73 472.282L554.518 472.584L552.916 473.783L551.448 474.399L549.779 474.601L530.119 474.007L529.346 473.828L526.971 469.571L526.064 467.543L525.873 466.636L525.918 465.93L527.229 463.309L527.8 461.673L527.99 460.587L526.478 454.739L525.425 453.115L524.339 452.207L522.681 450.493L522.311 449.631L522.401 449.216L522.961 448.824L532.651 445.553L533.771 446.102L536.964 447.088L537.624 447.077L538.207 446.741L539.002 445.295L541.052 439.089L541.523 432.592L541.467 431.505L541.646 430.721L542.038 430.083L542.621 429.769L543.752 429.959L549.891 432.278L551.011 434.015L551.527 435.18L553.868 436.457L559.895 439.033L561.261 439.257L571.243 437.095L573.069 436.244L576.978 432.558L577.46 431.864L577.617 430.609L577.415 430.105L576.497 430.027L574.895 431.057L573.998 430.945L573.774 429.847L576.351 423.048L577.314 421.547L578.3 414.691L578.491 412.148L578.076 411.341L577.471 411.117L577.191 410.725L577.852 405.225L580.26 399.982L581.28 398.772L582.523 398.559L583.856 398.66L585.01 400.397L586.175 401.282L588.225 401.562L589.771 401.438L592.404 399.993L594.767 397.842L595.417 398.145L596.504 399.4L598.587 402.379L599.999 406.267L608.726 407.297L613.89 407.409L614.965 409.851L614.976 411.084L614.047 413.134L613.89 413.996L614.002 418.399L614.943 422.992L617.026 424.851L618.64 427.999L618.561 428.906L618.057 430.408L617.788 430.587L616.399 430.912L616.287 431.304L616.679 435.46L623.21 439.862L625.585 440.759L630.973 441.207L644.271 444.041L644.506 444.31L645.704 450.986L645.794 452.129L644.338 452.297L642.613 452.723L640.193 453.876L639.42 454.481L638.569 455.501L634.961 461.371L634.849 461.785L634.872 466.445L635.107 467.51L635.835 468.585L636.989 469.761L642.064 474.041L644.562 479.272L645.492 481.849L646.545 484.033L646.78 484.94L646.713 485.108Z"
          fill="url(#paint10_linear_2_1004)"
          stroke="white"
          stroke-opacity="0.22"
          stroke-width="0.5"
        />
        <path
          d="M717.525 425.691L715.721 426.778L714.276 427.148L711.599 426.397L710.501 426.89L704.407 428.839L705.538 421.658L705.191 420.897L697.204 422.734L694.65 423.619L690.146 424.537L685.027 424.728L677.689 424.381L677.331 424.325L676.591 423.238L676.211 422.23L676.042 421.154L676.267 419.452L681.812 407.084L682.674 404.844L682.842 403.981L682.663 403.757L682.293 403.869L679.93 405.012L679.75 404.709L680.288 399.231L682.641 398.626L684.724 398.738L685.105 398.055L685.296 394.874L689.384 398.358L691.502 397.797L693.641 399.556L693.036 400.833L698.492 402.435L699.399 401.181L702.088 401.382L706.916 399.444L705.975 397.103L703.275 395.658L702.009 391.972L698.335 386.898L699.31 378.552L698.189 375.718L699.153 374.709L698.167 373.152L694.112 372.895L694.101 371.438L699.612 371.786L699.971 372.458L702.614 370.811L702.592 371.08L702.939 371.181L703.163 372.525L703.914 372.805L704.81 372.391L705.863 372.626L706.278 373.052L706.121 373.421L704.508 374.037L704.295 374.429L704.261 375.057L704.866 376.244L705.314 375.875L710.758 382.058L714.646 385.945L720.157 390.919L725.434 395.299L726.128 395.389L729.522 400.128L728.962 405.393L727.999 411.352L726.867 416.909L726.89 418.096L727.047 418.791L727.607 419.967L727.327 425.266L726.083 424.873L723.204 424.851L719.44 425.243L717.525 425.691Z"
          fill="url(#paint11_linear_2_1004)"
          stroke="white"
          stroke-opacity="0.22"
          stroke-width="0.5"
        />
        <path
          d="M691.916 561.99L690.762 565.944L690.605 567.322L688.028 570.033L686.191 573.506L686.27 575.265L685.743 576.508L685.844 577.393L685.452 578.39L682.651 579.701L678.114 580.485L677.207 582.098L673.667 589.66L672.379 591.519L670.844 592.617L668.279 595.944L667.102 598.666L665.68 601.388L663.899 603.102L662.566 607.449L662.509 610.317L662.801 614.809L662.173 622.27L661.378 624.992L660.616 625.485L659.955 624.241L658.275 622.897L657.446 622.65L655.9 622.818L655.43 622.751L654.466 621.9L653.346 621.239L652.663 621.34L651.128 621.956L650.377 622.561L649.941 623.121L649.156 623.222L648.686 622.494L648.215 620.959L647.386 620.152L646.468 619.704L645.717 619.861L645.079 620.287L642.984 622.214L641.472 622.729L640.183 623.491L638.772 623.614L636.711 624.14L635.635 625.294L633.955 626L633.35 625.776L632.387 624.913L632.196 623.199L631.882 622.65L631.02 622.236L630.605 621.261L630.303 620.959L629.216 620.533L628.712 620.152L627.928 620.32L627.413 620.186L625.71 619.234L625.195 618.438L625.598 616.724L625.239 615.783L623.301 614.82L621.778 613.24L621.296 612.949L619.134 612.143L617.028 612.288L613.018 614.069L611.248 613.857L610.329 613.935L607.831 614.786L605.647 614.238L604.582 614.249L603.35 614.663L601.558 614.249L599.933 614.506L598.623 614.372L596.617 614.45L595.15 615.055L594.702 612.804L594.892 612.064L595.374 611.37L596.337 610.664L597.603 610.014L601.009 608.995L601.345 608.177L601.356 607.337L600.874 606.105L595.766 599.899L595.475 598.229L596.102 591.934L595.777 590.22V589.548L596.281 586.064L597.11 584.058L597.928 582.804L598.791 581.952L599.396 580.53L600.023 579.712L602.577 578.222L603.059 577.774L603.328 576.844L603.294 575.847L602.689 574.671L602.387 573.663L603.552 568.879L604.033 567.479L617.006 553.924L620.971 551.852L623.021 550.418L625.732 547.696L626.236 546.721L626.651 545.153L626.83 543.45L627.637 539.697L637.596 529.75L638.929 527.263L639.836 525.806L640.497 525.09L641.001 524.709L642.278 524.339L643.88 524.417L645 524.776L646.58 526.378L647.185 526.579L648.686 521.762L648.54 517.057L648.372 516.475L647.946 515.96L646.804 513.607L646.199 510.09L646.266 509.642L646.77 508.701L647.521 508.062L648.092 507.782L649.056 507.491L653.525 507.233L654.623 506.583L655.519 505.665L655.956 506.258L656.718 506.583L657.737 506.225L658.432 506.494L659.597 505.687L661.893 505.474L663.406 506.393L665.052 506.55L666.229 505.037L668.525 504.959L669.69 504.343L670.194 504.354L671.438 505.653L672.58 505.934L674.642 504.824L676.042 504.981L677.431 505.9L678.406 507.961L678.753 509.115L681.766 511.467L681.867 512.364L681.71 513.753L681.318 513.999L681.654 516.419L680.243 517.147L679.582 518.155L678.428 518.514L675.627 518.962L675.235 519.589L678.07 523.712L677.666 524.462L675.885 524.675L674.462 526.042L674.933 527.7L675.907 529.873L675.896 530.377L675.37 531.004L675 536.953L677.711 540.549L678.831 541.456L678.417 542.711L677.375 544.335L677.095 545.466L677.599 545.478L679.257 544.75L679.772 544.761L681.643 545.814L683.223 548.502L683.458 549.387L683.547 550.911L683.794 551.168L685.295 551.706L686.919 552.502L688.04 553.275L690.246 556.109L690.269 556.534L691.075 558.013L692.296 559.682L692.285 560.567L691.916 561.99Z"
          fill="url(#paint12_linear_2_1004)"
          stroke="white"
          stroke-opacity="0.22"
          stroke-width="0.5"
        />
        <path
          d="M743.076 345.808L743.132 345.169L743.031 345.012H742.762L742.426 345.292L742.281 345.707L741.441 345.964L740.645 346.805L739.861 346.726L739.458 347.465L738.842 347.163L738.203 347.286L736.411 346.345L736.187 346.368L735.895 346.749L734.977 347.163L733.823 346.928L733.7 346.726H733.543L732.199 348.205L732.087 349.157L731.583 350.557L731.426 351.532L731.291 353.167L731.392 353.548L732.434 353.795L732.759 354.03L733.128 353.828L733.666 354.108L734.025 355.049L734.204 355.105L734.607 354.848L734.798 355.128L735.571 355.273L736.209 355.206L736.22 354.669L737.43 353.694L738.651 353.795L739.458 354.052L739.279 354.512L739.76 355.565L740.175 355.845L740.88 355.744L742.057 354.568L742.482 353.593L742.404 352.271L741.978 351.454L741.653 351.151L742.191 350.3L742.572 350.02L742.426 349.639L742.482 349.101L742.807 348.339L742.975 348.205L743.423 348.261L743.323 347.521L743.636 347.219L743.771 346.681L743.647 346.323L743.379 346.166L743.076 345.808Z"
          fill="url(#paint13_linear_2_1004)"
          stroke="white"
          stroke-opacity="0.22"
          stroke-width="0.5"
        />
        <path
          d="M840.311 289.393L840.143 288.967L839.414 288.396L838.529 287.97L834.799 284.61L833.746 284.005L831.786 283.769L830.419 282.985L829.904 282.963L828.94 283.198L827.663 283.758L826.263 285.058L825.501 285.091L824.448 284.71L823.978 284.755L821.995 287.265L820.852 288.038L819.777 288.519L818.455 289.516L817.671 289.539L816.483 288.407L815.901 288.586L815.251 289.214L814.5 290.032L813.559 291.577L812.641 292.317L812.025 293.325L810.927 294.199L810.087 295.42L809.919 296.831L808.899 298.848L807.667 302.197L807.723 302.421L807.477 302.959L806.648 303.25L806.177 303.228L804.799 301.962L803.959 301.727L803.791 301.021L803.914 299.217L803.298 298.198L800.453 296.641L797.439 293.986L797.025 293.807L796.252 293.964L795.837 294.479L795.501 296.854L795.255 297.268L794.168 298.243L793.832 299.016L792.062 300.091L791.715 300.651L791.861 301.962L792.241 303.519L792.152 304.729L790.987 305.558L789.911 305.905L789.363 306.521L788.758 306.499L787.458 307.115L786.461 308.571L785.262 309.58L784.77 310.431L783.941 312.683L783.28 313.814L779.706 315.606L778.205 316.682L777.387 319.079L777.029 319.415L776.659 319.55L776.256 319.415L776.077 319.09L776.133 318.463L775.707 317.712L775.27 317.634L774.508 317.858L774.217 318.205L772.369 322.675L769.086 324.019L767.742 322.854L766.913 322.485H766.353L764.482 323.661L762.197 324.031L761.917 323.885L760.976 324.031L760.629 324.255L760.404 324.748L759.811 325.341L759.049 325.711L755.98 326.439L755.397 326.697L754.03 327.974L753.706 328.545L752.641 329.34L751.185 330.898L750.737 331.503L750.177 333.25L749.919 333.564L749.09 333.989L747.723 334.382L747.298 334.314L746.928 334.449L745.046 336.051L744.296 337.283L744.318 337.865L744.688 338.47L745.998 339.322L745.617 340.453L745.158 340.688L742.682 340.296L742.089 340.554L741.159 340.599L739.691 340.991L739.165 340.968L738.045 340.319L737.417 340.162L736.185 340.308L735.782 340.173L734.101 340.532L732.813 341.305L732.096 343.433L731.603 343.993L729.105 345.405L727.828 348.586L727.089 349.101L726.517 349.034L725.857 348.384L725.532 348.25L724.96 348.429L722.742 351.868L722.529 354.904L722.272 355.319L720.715 356.629L720.379 358.646L720.143 358.803L719.191 358.635L718.429 359.15L717.701 360.113L716.122 361.648L714.408 363.911L713.579 365.199L713.041 366.431L711.182 368.773L710.375 370.643L710.207 372.335L710.017 372.727L708.527 374.083L706.477 374.889L705.312 375.853L710.756 382.036L714.643 385.923L720.155 390.897L725.431 395.277L726.125 395.367L729.52 400.106L728.96 405.371L727.996 411.33L726.865 416.887L726.876 418.074L727.033 418.769L727.593 419.956L727.313 425.255L730.169 425.501L730.886 425.445L732.063 425.86L733.284 425.759L734.146 425.479L735.603 425.826L737.798 425.871L739.053 426.565L739.591 426.117L738.65 423.742L738.19 423.272L736.644 422.969L736.185 422.499L736.454 421.547L736.062 420.897L736.264 420.202L738.224 420.471L739.154 420.404L740.42 419.205L740.431 418.186L740.8 417.57L740.778 416.214L739.613 415.285L739.143 414.725L739.154 413.795L738.829 412.887L738.381 412.495L738.65 411.543L738.123 411.33L737.44 409.011L736.969 408.451L736.98 407.521L737.373 407.062L737.417 406.211L736.678 405.572L735.177 403.5L735.099 403.13L735.401 402.413L737.148 401.237L739.187 400.968L740.162 401.159L740.498 401.069L740.789 400.766L740.756 400.565L741.204 399.725L741.741 399.467L742.033 398.044L741.405 396.666L741.025 395.401L741.26 391.469L741.327 391.11L741.697 390.673L741.921 389.609L743.982 386.708L745.819 386.483L746.558 386.853L749.393 387.637L750.748 387.805L751.588 388.634L752.54 390.55L752.821 391.883L753.437 392.757L754.848 393.765L755.666 394.751L756.439 394.874L756.887 395.109L757.447 396.566L757.783 397.025L758.523 397.193L760.337 397.07L761.379 396.409L762.947 393.026L763.452 392.578L764.247 392.342L765.849 392.802L766.185 392.768L767.238 391.637L768.481 390.897L768.963 390.886L770.744 391.984L770.979 391.995L772.301 390.74L773.153 390.191L775.427 389.867L776.357 389.463L777.544 388.455L779.146 387.828L781.812 385.229L782.159 384.736L782.473 383.761L783.022 383.1L783.683 382.977L784.837 383.436L786.114 383.638L787.749 382.585L788.735 382.148L789.542 381.006L791.379 379.897L792.723 379.863L793.485 379.605L793.899 379.202L794.471 378.071L794.482 377.667L794.157 376.625L794.325 375.819L795.087 374.9L795.12 374.049L795.457 373.455L795.143 372.021L795.266 371.506L795.692 371.192L796.14 370.139L796.756 369.467L798.212 368.885L799.366 369.165L799.142 368.694L799.31 367.708L799.277 365.748L799.008 363.138L798.268 361.637L796.129 358.702L795.378 350.524L798.705 345.92L799.467 343.758L798.918 342.626L798.38 341.999L797.428 341.372L796.073 339.747L794.762 339.613L794.202 339.03L793.496 337.384L793.048 337.081L791.581 336.454L790.382 336.252L789.295 336.32L788.713 336.633L787.794 336.745L786.741 336.476L785.341 336.577L784.635 336.163L784.456 335.748L784.265 334.359L784.355 332.152L784.669 331.323L785.128 330.674L786.551 330.069L787.324 329.934L788.758 330.057L790.617 328.332L792.073 328.388L793.026 327.94L794.717 326.305L795.367 325.296L795.703 325.039L798.022 323.773L798.627 323.594L800.486 322.328L801.237 320.827L801.338 318.351L801.607 317.802L802.301 317.141L803.69 316.514L806.121 314.811L806.491 313.456L807.745 312.559L808.16 312.089L808.989 310.375L810.165 309.165L811.498 308.527L812.226 308.471L813.212 308.829L813.671 308.818L813.862 308.605L814.052 307.686L814.299 307.462L815.061 307.978L816.226 308.381L817.211 308.392L817.693 308.224L818.69 307.216L819.026 306.645L819.205 304.606L818.186 302.836L818.567 301.828L819.295 301.088L819.429 300.27L819.62 299.946L820.292 299.621H821.188L823.283 300.786L824.19 301.01H825.053L826.229 300.427L827.674 299.195L828.436 298.859L830.408 296.831L831.315 296.484L834.317 293.616L835.527 293.157L836.446 293.123L837.869 293.471L838.317 292.776L839.101 292.171L839.605 291.97L839.829 291.656L839.941 289.897L840.311 289.393ZM743.724 347.007L743.321 347.522L743.422 348.261L742.985 348.205L742.806 348.328L742.481 349.09L742.425 349.628L742.582 350.009L742.201 350.289L741.663 351.129L742.302 351.969L742.492 352.585V353.582L742.324 354.198L741.26 355.475L740.89 355.733L740.173 355.834L739.77 355.554L739.288 354.512L739.467 354.053L738.661 353.795L737.451 353.694L736.241 354.669L736.219 355.207L735.58 355.285L734.807 355.128L734.617 354.848L734.213 355.106L734.034 355.05L733.665 354.109L733.127 353.829L732.757 354.03L732.432 353.795L731.391 353.537L731.29 353.157L731.424 351.521L731.581 350.546L732.085 349.146L732.197 348.205L733.541 346.726H733.698L733.81 346.928L734.964 347.163L735.894 346.749L736.185 346.368L736.42 346.346L738.213 347.287L738.851 347.163L739.467 347.466L739.871 346.726L740.666 346.805L741.45 345.965L742.122 345.841L742.548 345.147L743.052 345.024L743.097 345.819L743.668 346.334L743.724 347.007Z"
          fill="url(#paint14_linear_2_1004)"
          stroke="white"
          stroke-opacity="0.22"
          stroke-width="0.5"
        />
        <path
          d="M366.23 397.159L364.819 393.955L364.236 393.115L363.463 392.432L363.127 391.524L362.948 388.421L362.433 387.592L362.142 386.438L360.775 384.153L360.674 382.786L360.853 381.465L360.775 379.247L360.607 378.709L360.327 375.516L360.584 373.701L360.338 373.253L359.767 373.018L359.565 372.211L359.587 371.494L359.263 370.587L358.434 369.534L356.787 368.66L356.148 368.537L355.644 368.246L355.308 367.619L355.521 366.565L355.107 365.389L354.58 364.415L353.213 363.597L351.107 361.379L349.841 360.998L348.172 359.866L345.898 357.167L345.361 356.831L343.938 356.685L343.198 356.427L342.65 356.047L342.19 355.621L341.877 354.557L341.451 353.75L340.499 353.033L339.972 353.022L338.516 353.66L336.533 353.504L335.704 353.257L333.901 352.249L331.929 351.924L331.346 351.969L330.82 352.316L329.901 353.963L329.969 356.931L329.464 357.828L329.151 359.586L328.669 360.606L328.277 361.043L327.728 361.412L326.552 361.592L326.384 361.748L324.513 361.961L324.143 361.849L322.665 361.905L322.441 361.76L322.127 361.872L321.343 361.692L317.87 360.035L315.484 357.536L315.103 357.368L312.851 357.57L311.373 355.822L305.872 355.576L305.402 355.811L304.237 355.733L301.795 356.091L298.905 355.957L297.023 356.304L292.62 356.315L287.288 356.651L286.302 356.595L283.389 357.077L282.325 357.01L281.519 356.741L277.889 354.568L274.629 351.655L267.784 346.984L264.009 344.822L262.71 343.657L262.071 342.268L262.049 341.495L262.228 340.61L262.273 337.26L262.587 335.177L263.012 334.269L265.41 332.029L265.69 331.345V330.035L265.387 329.038L264.121 326.775L262.833 325.061L260.761 321.823L260.335 320.143L260.917 318.754L261.545 316.233L261.814 316.077L262.161 316.099L263.169 316.648L264.289 316.626L266.507 317.432L267.751 318.026L269.185 319.202L270.518 319.169L271.392 319.874L272.31 320.177L272.601 319.729L273.419 319.74L273.711 319.561L273.744 319.068L273.162 318.284L271.896 317.287L270.596 315.808L269.196 315.169L267.348 314.755L265.79 313.78L264.939 312.828L264.592 312.021L267.583 306.163L269.711 305.21L274.483 303.653L280.398 304.908L280.835 305.446L281.014 306.095L281.059 309.053L281.519 311.797L284.969 317.835L285.395 318.362L286.134 319.09L286.918 319.437L292.71 324.848L296.462 329.217L298.221 330.909L307.441 339.097L314.117 344.183L315.697 344.833L318.116 345.236L318.945 345.561L319.741 346.244L321.993 348.787L322.407 349.762L322.698 351.061L325.219 352.675H326.888L327.694 351.823L328.266 349.717L329.576 347.141L330.45 346.155L332.007 345.292L332.702 345.068L336.107 345.079L346.133 347.387L350.077 349.471L353.527 351.61L362.489 361.48L364.169 364.583L369.277 372.884L369.58 373.13L370.308 373.343L373.165 371.976L376.794 375.707L383.415 383.19L384.177 384.478L384.143 386.203L383.258 390.46L378.116 396.207L371.081 404.732L366.23 397.159Z"
          fill="url(#paint15_linear_2_1004)"
          stroke="white"
          stroke-opacity="0.22"
          stroke-width="0.5"
        />
      </g>
      <g clip-path="url(#clip0_2_1004)">
        <path
          d="M747.495 328.991L747.469 329.058C747.477 329.038 747.484 329.017 747.492 328.997L747.495 328.991Z"
          fill="#FFB800"
        />
        <path
          d="M737.301 303.176C728.418 303.176 721.128 310.291 721.128 318.97C721.128 322.333 722.228 325.467 724.082 328.035L724.016 327.933L734.369 345.456L734.421 345.523C734.838 346.056 735.251 346.486 735.751 346.809C736.251 347.133 736.891 347.337 737.519 347.275C738.775 347.152 739.505 346.302 740.179 345.407L740.222 345.352L751.636 326.332L751.645 326.316C751.918 325.833 752.116 325.346 752.285 324.874C753.068 323 753.471 320.994 753.472 318.97C753.472 310.291 746.184 303.176 737.301 303.176ZM737.301 305.815C744.715 305.815 750.776 311.736 750.776 318.97C750.777 320.659 750.44 322.332 749.784 323.895L749.771 323.928L749.759 323.962C749.617 324.362 749.463 324.725 749.285 325.039L737.987 343.865C737.487 344.509 737.138 344.662 737.25 344.65C737.308 344.645 737.361 344.689 737.238 344.609C737.12 344.532 736.879 344.308 736.593 343.951L726.319 326.559L726.283 326.51C724.734 324.367 723.823 321.771 723.823 318.97C723.823 311.737 729.887 305.815 737.301 305.815ZM737.301 309.959C732.2 309.959 728.075 313.984 728.075 318.97C728.075 323.956 732.201 327.981 737.301 327.981C742.401 327.981 746.525 323.955 746.525 318.97C746.525 313.984 742.401 309.959 737.301 309.959ZM737.301 312.598C740.976 312.598 743.829 315.387 743.829 318.97C743.829 322.552 740.976 325.342 737.301 325.342C733.626 325.342 730.77 322.551 730.77 318.97C730.77 315.387 733.626 312.598 737.301 312.598Z"
          fill="#FFB800"
        />
        <path
          d="M728.678 339.626C721.063 340.68 715.738 343.2 715.738 346.91C715.738 351.908 724.636 355.959 737.3 355.959C749.963 355.959 758.862 351.908 758.862 346.91C758.862 343.2 753.537 340.68 745.923 339.626L744.868 341.385C750.607 342.165 754.55 343.803 754.55 345.704C754.55 348.37 746.827 350.53 737.3 350.53C727.773 350.53 720.05 348.37 720.05 345.704C720.049 343.809 723.967 342.172 729.723 341.39C729.376 340.802 729.026 340.215 728.678 339.626H728.678Z"
          fill="#FFB800"
        />
      </g>
      <defs>
        <filter
          id="filter0_d_2_1004"
          x="0.75"
          y="0.766663"
          width="985.708"
          height="678.502"
          filterUnits="userSpaceOnUse"
          color-interpolation-filters="sRGB"
        >
          <feFlood flood-opacity="0" result="BackgroundImageFix" />
          <feColorMatrix
            in="SourceAlpha"
            type="matrix"
            values="0 0 0 0 0 0 0 0 0 0 0 0 0 0 0 0 0 0 127 0"
            result="hardAlpha"
          />
          <feOffset dy="4" />
          <feGaussianBlur stdDeviation="24.5" />
          <feComposite in2="hardAlpha" operator="out" />
          <feColorMatrix
            type="matrix"
            values="0 0 0 0 0 0 0 0 0 0.0470588 0 0 0 0 0.2 0 0 0 1 0"
          />
          <feBlend
            mode="normal"
            in2="BackgroundImageFix"
            result="effect1_dropShadow_2_1004"
          />
          <feBlend
            mode="normal"
            in="SourceGraphic"
            in2="effect1_dropShadow_2_1004"
            result="shape"
          />
        </filter>
        <linearGradient
          id="paint0_linear_2_1004"
          x1="29.5352"
          y1="24.7315"
          x2="462.966"
          y2="242.091"
          gradientUnits="userSpaceOnUse"
        >
          <stop stop-color="#000428" stop-opacity="0.51" />
          <stop offset="1" stop-color="#004E92" stop-opacity="0" />
        </linearGradient>
        <linearGradient
          id="paint1_linear_2_1004"
          x1="156.12"
          y1="37.7301"
          x2="316.039"
          y2="121.084"
          gradientUnits="userSpaceOnUse"
        >
          <stop stop-color="#000428" stop-opacity="0.51" />
          <stop offset="1" stop-color="#004E92" stop-opacity="0" />
        </linearGradient>
        <linearGradient
          id="paint2_linear_2_1004"
          x1="803.52"
          y1="370.365"
          x2="812.527"
          y2="374.026"
          gradientUnits="userSpaceOnUse"
        >
          <stop stop-color="#000428" stop-opacity="0.51" />
          <stop offset="1" stop-color="#004E92" stop-opacity="0" />
        </linearGradient>
        <linearGradient
          id="paint3_linear_2_1004"
          x1="851.664"
          y1="364.318"
          x2="925.878"
          y2="428.799"
          gradientUnits="userSpaceOnUse"
        >
          <stop stop-color="#000428" stop-opacity="0.51" />
          <stop offset="1" stop-color="#004E92" stop-opacity="0" />
        </linearGradient>
        <linearGradient
          id="paint4_linear_2_1004"
          x1="359.851"
          y1="327.805"
          x2="579.006"
          y2="431.884"
          gradientUnits="userSpaceOnUse"
        >
          <stop stop-color="#000428" stop-opacity="0.51" />
          <stop offset="1" stop-color="#004E92" stop-opacity="0" />
        </linearGradient>
        <linearGradient
          id="paint5_linear_2_1004"
          x1="786.198"
          y1="384.315"
          x2="856.162"
          y2="462.997"
          gradientUnits="userSpaceOnUse"
        >
          <stop stop-color="#000428" stop-opacity="0.51" />
          <stop offset="1" stop-color="#004E92" stop-opacity="0" />
        </linearGradient>
        <linearGradient
          id="paint6_linear_2_1004"
          x1="591.78"
          y1="346.973"
          x2="751.439"
          y2="428.478"
          gradientUnits="userSpaceOnUse"
        >
          <stop stop-color="#000428" stop-opacity="0.51" />
          <stop offset="1" stop-color="#004E92" stop-opacity="0" />
        </linearGradient>
        <linearGradient
          id="paint7_linear_2_1004"
          x1="789.654"
          y1="329.296"
          x2="891.014"
          y2="402.013"
          gradientUnits="userSpaceOnUse"
        >
          <stop stop-color="#000428" stop-opacity="0.51" />
          <stop offset="1" stop-color="#004E92" stop-opacity="0" />
        </linearGradient>
        <linearGradient
          id="paint8_linear_2_1004"
          x1="330.516"
          y1="156.859"
          x2="689.614"
          y2="310.597"
          gradientUnits="userSpaceOnUse"
        >
          <stop stop-color="#000428" stop-opacity="0.51" />
          <stop offset="1" stop-color="#004E92" stop-opacity="0" />
        </linearGradient>
        <linearGradient
          id="paint9_linear_2_1004"
          x1="473.406"
          y1="464.678"
          x2="640.431"
          y2="600.386"
          gradientUnits="userSpaceOnUse"
        >
          <stop stop-color="#000428" stop-opacity="0.51" />
          <stop offset="1" stop-color="#004E92" stop-opacity="0" />
        </linearGradient>
        <linearGradient
          id="paint10_linear_2_1004"
          x1="514.725"
          y1="391.537"
          x2="652.743"
          y2="484.821"
          gradientUnits="userSpaceOnUse"
        >
          <stop stop-color="#000428" stop-opacity="0.51" />
          <stop offset="1" stop-color="#004E92" stop-opacity="0" />
        </linearGradient>
        <linearGradient
          id="paint11_linear_2_1004"
          x1="672.783"
          y1="366.726"
          x2="744.719"
          y2="398.973"
          gradientUnits="userSpaceOnUse"
        >
          <stop stop-color="#000428" stop-opacity="0.51" />
          <stop offset="1" stop-color="#004E92" stop-opacity="0" />
        </linearGradient>
        <linearGradient
          id="paint12_linear_2_1004"
          x1="588.754"
          y1="495.779"
          x2="725.577"
          y2="549.166"
          gradientUnits="userSpaceOnUse"
        >
          <stop stop-color="#000428" stop-opacity="0.51" />
          <stop offset="1" stop-color="#004E92" stop-opacity="0" />
        </linearGradient>
        <linearGradient
          id="paint13_linear_2_1004"
          x1="730.531"
          y1="344.25"
          x2="745.873"
          y2="352.846"
          gradientUnits="userSpaceOnUse"
        >
          <stop stop-color="#000428" stop-opacity="0.51" />
          <stop offset="1" stop-color="#004E92" stop-opacity="0" />
        </linearGradient>
        <linearGradient
          id="paint14_linear_2_1004"
          x1="697.084"
          y1="272.854"
          x2="877.45"
          y2="355.327"
          gradientUnits="userSpaceOnUse"
        >
          <stop stop-color="#000428" stop-opacity="0.51" />
          <stop offset="1" stop-color="#004E92" stop-opacity="0" />
        </linearGradient>
        <linearGradient
          id="paint15_linear_2_1004"
          x1="252.787"
          y1="296.538"
          x2="400.413"
          y2="384.513"
          gradientUnits="userSpaceOnUse"
        >
          <stop stop-color="#000428" stop-opacity="0.51" />
          <stop offset="1" stop-color="#004E92" stop-opacity="0" />
        </linearGradient>
        <clipPath id="clip0_2_1004">
          <rect
            width="53.9059"
            height="52.7828"
            fill="white"
            transform="translate(710.347 303.176)"
          />
        </clipPath>
      </defs>
    </svg>