<svg width="427" height="284" viewBox="0 0 427 284" fill="none" xmlns="http://www.w3.org/2000/svg">
<path d="M216.315 79.8211C212.507 73.5139 207.996 66.7796 200.93 64.7201C192.748 62.335 184.343 67.073 177.213 71.7484C155.892 85.731 135.359 100.884 115.708 117.138L115.73 117.383C131.028 116.326 146.327 115.27 161.626 114.213C172.679 113.45 184.112 112.581 193.88 107.343C197.587 105.356 201.2 102.701 205.4 102.516C210.618 102.286 215.169 105.937 218.744 109.751C239.896 132.311 246.017 166.812 269.747 186.633C254.784 149.67 236.917 113.954 216.315 79.8211Z" fill="#F2F2F2"/>
<path d="M346.332 271.175C343.993 268.216 343.037 267.524 340.73 264.538C321.943 240.201 304.285 215.041 287.756 189.06C276.529 171.414 265.858 153.43 255.744 135.107C250.929 126.396 246.247 117.616 241.696 108.768C238.164 101.908 234.711 95.0066 231.338 88.0641C230.373 86.0812 229.435 84.0892 228.502 82.0926C226.304 77.3975 224.147 72.6796 221.831 68.0482C219.191 62.7696 215.978 57.2357 211.131 53.6893C208.925 52.0091 206.288 50.9925 203.526 50.7583C199.581 50.503 195.94 52.1349 192.518 53.9172C167.478 66.9952 144.036 83.3918 122.833 102.049C101.576 120.749 82.5751 141.875 66.2186 164.996C65.7182 165.712 64.5349 165.028 65.04 164.308C67.0288 161.491 69.057 158.704 71.1247 155.948C96.8345 121.699 128.359 92.2464 164.256 68.9371C170.295 65.0169 176.448 61.2805 182.715 57.728C185.873 55.9366 189.045 54.1679 192.272 52.5087C195.435 50.8813 198.793 49.4181 202.407 49.3634C214.704 49.1719 221.071 63.1206 225.444 72.5063C226.818 75.4602 228.209 78.4049 229.617 81.3405C234.937 92.4858 240.462 103.529 246.192 114.471C249.728 121.226 253.341 127.942 257.032 134.619C268.519 155.41 280.728 175.78 293.659 195.729C310.789 222.154 327.782 245.497 347.297 270.208C347.834 270.892 346.873 271.868 346.332 271.175Z" fill="#E4E4E4"/>
<path d="M121.618 95.1616C120.903 94.3638 120.193 93.5661 119.474 92.7684C113.804 86.4869 107.719 80.2784 99.9324 76.6773C96.2195 74.906 92.1664 73.965 88.0542 73.9194C83.8037 73.9331 79.6487 75.0499 75.7213 76.6135C73.8644 77.3565 72.0485 78.1998 70.2601 79.0978C68.2166 80.128 66.2095 81.2266 64.2118 82.3343C60.4617 84.4129 56.7602 86.5827 53.1075 88.8436C45.8394 93.3427 38.799 98.1853 31.9863 103.371C28.4546 106.061 24.9958 108.838 21.6099 111.704C18.4607 114.366 15.3751 117.1 12.3533 119.904C11.7071 120.502 10.7422 119.535 11.3884 118.938C12.1848 118.195 12.9904 117.457 13.7959 116.727C16.0714 114.667 18.3833 112.646 20.7317 110.665C25.014 107.045 29.4072 103.566 33.9113 100.226C40.9153 95.0294 48.1605 90.1853 55.6467 85.6938C59.3877 83.4511 63.1802 81.3025 67.0242 79.2482C68.1848 78.6283 69.359 78.022 70.5468 77.4476C73.2419 76.086 76.0422 74.9442 78.9205 74.0334C82.9978 72.7123 87.3117 72.2878 91.5677 72.789C95.677 73.3877 99.6362 74.7596 103.236 76.8323C110.882 81.1126 116.812 87.7313 122.583 94.1906C123.165 94.847 122.205 95.8179 121.618 95.1616Z" fill="#E4E4E4"/>
<path d="M278.273 160.254L296.594 153.542L305.69 150.21C308.653 149.125 311.608 147.889 314.671 147.112C317.332 146.351 320.158 146.387 322.799 147.216C325.155 148.089 327.311 149.428 329.139 151.152C331.007 152.875 332.745 154.735 334.339 156.715C336.32 159.099 338.271 161.508 340.231 163.908C348.32 173.817 356.356 183.769 364.339 193.764C372.322 203.758 380.252 213.795 388.128 223.875C396.024 233.979 403.865 244.125 411.652 254.314C412.606 255.562 413.559 256.811 414.512 258.06C415.038 258.75 416.224 258.07 415.691 257.37C407.846 247.079 399.947 236.83 391.993 226.623C384.02 216.392 375.991 206.204 367.908 196.059C359.824 185.915 351.687 175.815 343.494 165.759C341.453 163.253 339.408 160.751 337.361 158.251C335.633 156.142 333.925 154.011 332.031 152.048C328.553 148.446 324.208 145.262 319.007 145.176C315.949 145.125 312.99 146.097 310.149 147.126C307.086 148.236 304.03 149.367 300.971 150.487L282.523 157.246L277.91 158.936C277.092 159.235 277.445 160.558 278.273 160.254L278.273 160.254Z" fill="#E4E4E4"/>
<path d="M97.5213 84.5813C88.2111 79.7885 76.2881 80.7272 67.7327 86.7151C84.0515 89.535 100.192 93.3082 116.071 98.0153C109.477 94.1448 104.319 88.0806 97.5213 84.5813Z" fill="#F2F2F2"/>
<path d="M67.6411 86.6985L65.8488 88.1578C66.455 87.647 67.0853 87.1682 67.7327 86.715C67.7022 86.7098 67.6717 86.7038 67.6411 86.6985Z" fill="#F2F2F2"/>
<path d="M328.449 160.321C326.646 158.122 324.696 155.82 321.998 154.927L319.48 155.027C338.651 188.958 364.543 218.607 395.567 242.154C373.195 214.876 350.822 187.599 328.449 160.321Z" fill="#F2F2F2"/>
<path d="M171.841 142.182C173.007 146.423 175.632 150.115 179.253 152.604C180.653 153.559 182.31 154.474 182.789 156.102C183.041 157.139 182.885 158.234 182.355 159.16C181.826 160.074 181.181 160.916 180.438 161.667L180.37 161.921C176.896 159.859 173.591 157.25 171.672 153.691C169.753 150.132 169.485 145.467 171.841 142.182" fill="#F2F2F2"/>
<path d="M287.51 243.123C288.676 247.364 291.302 251.056 294.923 253.544C296.323 254.499 297.979 255.415 298.458 257.042C298.71 258.08 298.555 259.174 298.025 260.1C297.495 261.014 296.851 261.857 296.108 262.607L296.04 262.862C292.566 260.799 289.26 258.191 287.341 254.632C285.422 251.073 285.154 246.408 287.511 243.123" fill="#F2F2F2"/>
<path d="M56.668 236.161C57.8334 240.403 60.4591 244.094 64.0803 246.583C65.4803 247.538 67.1367 248.454 67.6157 250.081C67.8676 251.118 67.7124 252.213 67.182 253.139C66.6526 254.053 66.0084 254.895 65.2651 255.646L65.1973 255.9C61.723 253.838 58.4178 251.229 56.4986 247.67C54.5795 244.111 54.3115 239.446 56.668 236.161" fill="#F2F2F2"/>
<path d="M322.31 50.7189C336.293 50.7189 347.629 39.3651 347.629 25.3595C347.629 11.3538 336.293 0 322.31 0C308.328 0 296.992 11.3538 296.992 25.3595C296.992 39.3651 308.328 50.7189 322.31 50.7189Z" fill="#004787"/>
<path d="M368 5.90247C355.73 4.24121 341.721 10.8842 338.541 22.8702C337.739 20.7391 336.282 18.9184 334.38 17.671C332.478 16.4237 330.229 15.8144 327.958 15.9311C325.688 16.0478 323.513 16.8845 321.748 18.3203C319.983 19.7561 318.72 21.7167 318.141 23.9187L319.545 24.9265C345.84 30.6221 373.06 30.4988 399.302 24.5653C390.767 15.5806 380.27 7.56371 368 5.90247Z" fill="#F0F0F0"/>
<path d="M315.378 39.7151C303.107 38.0538 289.099 44.6968 285.919 56.6828C285.117 54.5517 283.66 52.7309 281.758 51.4836C279.856 50.2363 277.607 49.627 275.336 49.7437C273.065 49.8604 270.891 50.6971 269.126 52.1329C267.361 53.5687 266.098 55.5292 265.518 57.7313L266.923 58.7391C293.218 64.4347 320.437 64.3114 346.68 58.3779C338.145 49.3932 327.648 41.3763 315.378 39.7151Z" fill="#F0F0F0"/>
<path d="M422.473 46.1086C422.422 46.1087 422.371 46.1008 422.323 46.0853C291.062 4.50661 175.374 9.94375 101.437 21.8266C91.3745 23.4432 81.2856 25.3103 71.4499 27.3764C68.9389 27.9033 66.3338 28.468 63.7072 29.0561C60.5703 29.7558 57.4751 30.4764 54.5071 31.1971C53.2253 31.501 51.9686 31.8075 50.7368 32.1163C48.8711 32.5776 46.9779 33.0583 44.9486 33.5866C42.6809 34.1723 40.3769 34.7865 38.099 35.4125C38.0907 35.4154 38.0822 35.4178 38.0736 35.4197L38.0738 35.4202C35.501 36.1238 32.9417 36.8479 30.4668 37.5709C29.1273 37.9584 27.8339 38.3406 26.595 38.7179C26.4566 38.7562 26.3339 38.7931 26.2096 38.831L25.9434 38.9121C25.7892 38.9592 25.637 39.0053 25.4848 39.049L25.4751 39.052L25.4753 39.0525L25.0724 39.1778C24.592 39.3235 24.1232 39.4657 23.6622 39.6075C11.4772 43.3699 4.77869 46.0464 4.71252 46.0727C4.65201 46.097 4.58731 46.1091 4.52212 46.1083C4.45693 46.1076 4.39253 46.094 4.33259 46.0683C4.27265 46.0426 4.21834 46.0054 4.17277 45.9587C4.1272 45.912 4.09126 45.8567 4.06701 45.7961C4.04275 45.7355 4.03066 45.6707 4.0314 45.6054C4.03215 45.5401 4.04573 45.4756 4.07137 45.4156C4.09701 45.3555 4.1342 45.3011 4.18082 45.2555C4.22745 45.2098 4.28259 45.1738 4.3431 45.1496C4.40976 45.1233 11.141 42.4332 23.3703 38.6567C23.8331 38.5145 24.3031 38.3722 24.785 38.226L25.1592 38.1095C25.1721 38.1046 25.1849 38.1007 25.198 38.0968C25.3495 38.0536 25.5008 38.0075 25.6545 37.9609L25.9211 37.8798C26.0539 37.8395 26.1848 37.7997 26.3189 37.7628C27.5493 37.3879 28.8471 37.0048 30.19 36.6158C32.6659 35.8923 35.2276 35.1683 37.8024 34.4637C37.8104 34.4607 37.8186 34.4588 37.8266 34.4564V34.4559C40.1124 33.828 42.4249 33.2113 44.6999 32.6238C46.7324 32.0949 48.6291 31.6132 50.4981 31.151C51.735 30.8426 52.9942 30.5356 54.2756 30.2298C57.247 29.5082 60.3485 28.7866 63.491 28.0854C66.1217 27.4969 68.7312 26.9307 71.2463 26.4033C81.0972 24.3338 91.2019 22.4638 101.279 20.8448C175.322 8.94492 291.176 3.499 422.622 45.1374C422.735 45.1731 422.831 45.2482 422.894 45.349C422.957 45.4498 422.981 45.5698 422.963 45.6871C422.945 45.8044 422.886 45.9114 422.796 45.9887C422.706 46.066 422.591 46.1086 422.473 46.1086Z" fill="#CCCCCC"/>
<path d="M130.557 208.763C130.385 208.26 130.096 207.804 129.713 207.435C129.572 207.304 129.419 207.186 129.256 207.082C127.961 206.217 126.025 206.023 124.793 207.082C124.669 207.19 124.555 207.308 124.451 207.435C124.084 207.888 123.706 208.33 123.319 208.763C122.684 209.489 122.033 210.19 121.353 210.871C121.16 211.06 120.966 211.254 120.767 211.443C120.653 211.557 120.539 211.667 120.425 211.776C119.988 212.194 119.541 212.597 119.089 212.995C118.851 213.208 118.613 213.417 118.37 213.621C118.007 213.924 117.645 214.228 117.277 214.521C117.243 214.546 117.208 214.571 117.173 214.601C117.163 214.606 117.158 214.616 117.148 214.621C117.143 214.621 117.138 214.621 117.133 214.63C117.12 214.636 117.108 214.644 117.099 214.655C116.99 214.73 116.915 214.78 116.86 214.824C116.88 214.814 116.9 214.8 116.92 214.79C116.831 214.859 116.736 214.929 116.647 214.998C115.778 215.64 114.89 216.256 113.981 216.833C111.733 218.274 109.373 219.53 106.922 220.587C106.758 220.652 106.589 220.722 106.42 220.786C100.004 223.419 93.0432 224.447 86.141 223.78C85.436 223.725 84.7311 223.65 84.0262 223.556C83.212 223.437 82.4028 223.292 81.5986 223.128C78.5369 222.516 75.5411 221.611 72.6528 220.423C69.0398 218.766 65.6035 216.747 62.3965 214.397C61.9 214.044 61.3986 213.691 60.8972 213.348C61.4681 211.945 62.0291 210.543 62.5752 209.131C62.8482 208.45 63.1113 207.768 63.3695 207.082C65.3999 201.797 67.3062 196.461 69.1331 191.106C70.9798 185.681 72.7223 180.224 74.3606 174.737C74.5294 174.18 74.6932 173.623 74.852 173.066C75.7109 170.167 76.535 167.261 77.3243 164.349C77.3988 164.066 77.4782 163.787 77.5477 163.504C77.776 162.668 77.9994 161.833 78.2179 160.998C78.7143 159.113 77.5924 156.861 75.6165 156.408C74.6652 156.164 73.6564 156.299 72.8026 156.785C71.9488 157.271 71.3166 158.07 71.0394 159.014C70.8259 159.819 70.6125 160.62 70.394 161.425C69.3466 165.319 68.2445 169.199 67.0878 173.066C66.919 173.623 66.7502 174.18 66.5814 174.737C64.0297 183.16 61.2282 191.499 58.1768 199.753C57.8094 200.752 57.4371 201.749 57.0598 202.741C56.8761 203.229 56.6924 203.716 56.5038 204.203C56.1414 205.163 55.7691 206.123 55.3967 207.082C55.1832 207.644 54.9648 208.206 54.7464 208.763C54.6024 209.116 54.4634 209.469 54.3244 209.817C52.909 209.308 51.4425 208.955 49.9508 208.763L49.7125 208.733C48.556 208.594 47.3865 208.604 46.2325 208.763C44.5054 208.965 42.8437 209.544 41.3648 210.46C39.8859 211.376 38.6259 212.606 37.674 214.064C35.306 217.798 35.3357 223.138 38.6569 226.311C42.0773 229.578 47.2552 229.553 51.2813 227.509C53.4148 226.353 55.2138 224.664 56.5038 222.606C56.9979 221.86 57.452 221.089 57.864 220.294C57.9683 220.364 58.0725 220.433 58.1768 220.508C58.5739 220.786 58.9711 221.07 59.3632 221.348C61.6483 223.006 64.0564 224.488 66.5665 225.779C71.9637 228.466 77.7735 230.226 83.7531 230.985C83.8872 231 84.0162 231.02 84.1503 231.035C84.8105 231.119 85.4758 231.184 86.141 231.238C95.6836 231.959 105.238 230.003 113.733 225.59C114.453 225.217 115.166 224.826 115.873 224.416C116.97 223.78 118.042 223.104 119.089 222.387C119.66 222 120.216 221.607 120.767 221.194C123.175 219.418 125.42 217.429 127.474 215.252C128.254 214.432 129 213.585 129.713 212.711C130.388 211.997 130.776 211.059 130.805 210.076C130.801 209.627 130.717 209.182 130.557 208.763ZM48.3523 220.607C48.4565 220.533 48.5608 220.453 48.6601 220.374C48.6303 220.448 48.4863 220.533 48.3523 220.607H48.3523ZM49.9459 219.001C49.8317 219.131 49.7274 219.26 49.6132 219.389C49.2659 219.778 48.8927 220.144 48.4963 220.483C48.4416 220.533 48.3821 220.582 48.3225 220.627C48.3219 220.627 48.3212 220.627 48.3206 220.628C48.32 220.628 48.3194 220.628 48.319 220.629C48.3185 220.629 48.3181 220.63 48.3179 220.63C48.3176 220.631 48.3175 220.632 48.3175 220.632C48.2458 220.664 48.1762 220.701 48.109 220.742C47.8956 220.871 47.6771 220.99 47.4538 221.1C47.0164 221.261 46.5664 221.386 46.1084 221.473C45.7565 221.498 45.4033 221.502 45.051 221.482H45.0411C44.7979 221.428 44.5577 221.362 44.3212 221.284C44.2021 221.224 44.0879 221.154 43.9737 221.085C43.9291 221.045 43.8893 221.005 43.8645 220.98C43.816 220.936 43.7712 220.888 43.7305 220.836C43.7305 220.835 43.7304 220.835 43.7301 220.834C43.7299 220.834 43.7296 220.833 43.7291 220.833C43.7286 220.832 43.7281 220.832 43.7275 220.831C43.7268 220.831 43.7262 220.831 43.7255 220.831C43.6709 220.732 43.6113 220.632 43.5568 220.533C43.5539 220.53 43.5521 220.527 43.5518 220.523C43.5121 220.398 43.4773 220.269 43.4475 220.14C43.4368 219.913 43.4384 219.686 43.4525 219.459C43.5191 219.141 43.6087 218.829 43.7206 218.524C43.8211 218.308 43.9355 218.099 44.0631 217.897C44.073 217.877 44.1227 217.798 44.1773 217.708C44.1823 217.703 44.1823 217.703 44.1823 217.698C44.2567 217.614 44.3312 217.524 44.4106 217.445C44.5447 217.296 44.6886 217.166 44.8326 217.032C45.1126 216.849 45.4026 216.681 45.7014 216.53C46.1753 216.361 46.6616 216.23 47.1559 216.137C47.8848 216.079 48.6175 216.086 49.3452 216.157C50.0345 216.277 50.7146 216.445 51.3806 216.659C50.9769 217.444 50.5174 218.198 50.0055 218.917C49.9856 218.947 49.9657 218.976 49.9459 219.001ZM44.4255 217.365C44.3818 217.436 44.3301 217.501 44.2716 217.559C44.311 217.486 44.3631 217.42 44.4255 217.365Z" fill="#3F3D56"/>
<path d="M115.634 157.979C115.589 159.541 115.545 161.102 115.5 162.663C115.406 166.129 115.308 169.597 115.207 173.066C115.103 176.969 114.994 180.871 114.88 184.771C114.825 186.785 114.769 188.799 114.711 190.812C114.557 196.237 114.405 201.661 114.254 207.082C114.239 207.644 114.219 208.201 114.204 208.763C114.13 211.453 114.055 214.143 113.981 216.833C113.897 219.752 113.814 222.671 113.733 225.59C113.673 227.778 113.612 229.967 113.549 232.158C113.102 248.035 112.656 263.912 112.209 279.789C112.19 280.772 111.792 281.71 111.097 282.405C110.403 283.101 109.467 283.5 108.485 283.519C107.5 283.511 106.558 283.115 105.861 282.418C105.165 281.72 104.77 280.776 104.762 279.789C105.01 270.859 105.262 261.928 105.517 252.998C105.74 244.923 105.967 236.847 106.197 228.772C106.271 226.112 106.346 223.45 106.42 220.786C106.534 216.779 106.647 212.771 106.758 208.763C106.773 208.201 106.793 207.644 106.808 207.082C106.817 206.59 106.832 206.103 106.847 205.61C107.066 197.829 107.284 190.045 107.503 182.26C107.592 179.197 107.678 176.132 107.761 173.066C107.86 169.57 107.959 166.076 108.059 162.584C108.103 161.047 108.143 159.516 108.188 157.979C108.206 156.996 108.605 156.059 109.299 155.363C109.993 154.668 110.929 154.269 111.911 154.25C112.896 154.258 113.838 154.654 114.535 155.351C115.231 156.049 115.626 156.993 115.634 157.979Z" fill="#3F3D56"/>
<path d="M319.882 159.014C315.978 173.822 311.311 188.418 305.902 202.743C304.409 206.694 302.882 210.637 301.249 214.533L301.625 213.642C300.896 215.498 299.965 217.268 298.85 218.919C298.774 219.025 298.697 219.131 298.618 219.235C299.004 218.741 299.077 218.644 298.838 218.943C298.712 219.092 298.587 219.242 298.457 219.388C298.109 219.777 297.736 220.143 297.34 220.483C297.241 220.569 297.139 220.652 297.037 220.734L297.502 220.372C297.448 220.499 297.069 220.669 296.951 220.741C296.568 220.972 296.169 221.175 295.757 221.347L296.646 220.971C295.971 221.244 295.266 221.437 294.546 221.548L295.536 221.415C294.828 221.513 294.111 221.52 293.402 221.438L294.392 221.571C293.811 221.491 293.244 221.338 292.702 221.115L293.591 221.491C293.302 221.365 293.023 221.216 292.758 221.045C292.623 220.957 292.209 220.643 292.75 221.058C293.313 221.488 292.822 221.095 292.707 220.98C292.61 220.885 292.523 220.781 292.429 220.684C291.991 220.234 292.923 221.458 292.626 220.932C292.467 220.668 292.321 220.397 292.19 220.118L292.565 221.009C292.394 220.585 292.273 220.143 292.204 219.691L292.337 220.682C292.266 220.12 292.265 219.551 292.335 218.989L292.202 219.981C292.293 219.353 292.459 218.739 292.696 218.151L292.321 219.041C292.486 218.646 292.681 218.264 292.905 217.899C293.009 217.71 293.13 217.531 293.267 217.366C293.292 217.374 292.637 218.118 292.984 217.742C293.075 217.644 293.16 217.54 293.252 217.443C293.399 217.287 293.557 217.144 293.712 216.996C294.23 216.502 292.986 217.477 293.584 217.085C294.018 216.8 294.474 216.55 294.949 216.34L294.06 216.716C294.855 216.389 295.688 216.165 296.539 216.05L295.55 216.183C296.616 216.06 297.694 216.073 298.757 216.221L297.767 216.088C299.114 216.292 300.429 216.663 301.685 217.192L300.795 216.816C303.471 217.966 305.841 219.674 308.206 221.349C310.491 223.007 312.898 224.487 315.408 225.778C320.805 228.466 326.615 230.227 332.595 230.986C341.172 232.038 349.874 230.917 357.905 227.724C365.936 224.531 373.037 219.369 378.558 212.711C379.232 211.996 379.62 211.058 379.649 210.074C379.642 209.087 379.25 208.141 378.558 207.437C377.192 206.181 374.612 205.827 373.293 207.437C372.043 208.966 370.698 210.415 369.268 211.777C368.601 212.411 367.915 213.026 367.212 213.621C366.81 213.962 366.403 214.295 365.99 214.622C365.795 214.776 365.187 215.187 366.121 214.523C365.907 214.676 365.701 214.842 365.49 214.998C362.364 217.307 358.975 219.237 355.396 220.749L356.286 220.373C352.445 221.986 348.412 223.093 344.286 223.666L345.276 223.533C341.032 224.092 336.733 224.085 332.491 223.514L333.481 223.647C329.24 223.063 325.092 221.932 321.141 220.28L322.03 220.656C318.218 218.967 314.6 216.867 311.24 214.395C309.491 213.098 307.647 211.936 305.723 210.918C303.481 209.771 301.055 209.032 298.555 208.735C293.87 208.183 289.095 210.011 286.519 214.066C284.148 217.798 284.179 223.138 287.498 226.311C290.918 229.579 296.096 229.551 300.126 227.507C304.006 225.538 306.337 221.448 307.977 217.591C311.666 208.912 314.932 200.032 317.975 191.106C320.985 182.276 323.716 173.357 326.165 164.348C326.469 163.232 326.768 162.115 327.062 160.997C327.559 159.113 326.436 156.86 324.462 156.41C323.51 156.164 322.501 156.299 321.646 156.785C320.792 157.271 320.159 158.07 319.882 159.014L319.882 159.014Z" fill="#3F3D56"/>
<path d="M357.031 157.979L355.691 205.612L354.358 252.996L353.604 279.79C353.613 280.776 354.008 281.72 354.704 282.417C355.4 283.115 356.343 283.511 357.328 283.519C358.309 283.5 359.245 283.101 359.939 282.406C360.633 281.71 361.032 280.773 361.051 279.79L362.391 232.157L363.724 184.773L364.478 157.979C364.47 156.993 364.075 156.049 363.378 155.351C362.682 154.654 361.74 154.258 360.755 154.25C359.773 154.269 358.837 154.668 358.143 155.363C357.449 156.059 357.05 156.996 357.031 157.979Z" fill="#3F3D56"/>
<path opacity="0.2" d="M228.249 266.113H229.405V213.384H256.375V212.229H229.405V189.98H250.233C249.928 189.591 249.614 189.207 249.29 188.828H229.405V174.133C229.022 173.97 228.637 173.813 228.249 173.664V188.828H205.585V170C205.197 170.018 204.815 170.045 204.429 170.077V188.828H186.349V174.781C185.961 174.953 185.578 175.134 185.199 175.324V188.828H170V189.98H185.199V212.229H170V213.384H185.199V266.113H186.349V213.384C188.723 213.384 191.075 213.852 193.269 214.762C195.462 215.672 197.456 217.006 199.135 218.687C200.814 220.369 202.145 222.366 203.054 224.563C203.962 226.76 204.43 229.116 204.429 231.494V266.113H205.585V213.384H228.249V266.113ZM186.349 212.229V189.98H204.429V212.229H186.349ZM205.585 212.229V189.98H206.039C208.956 189.981 211.844 190.556 214.539 191.674C217.233 192.793 219.682 194.431 221.744 196.497C223.807 198.563 225.442 201.016 226.559 203.715C227.675 206.415 228.249 209.308 228.249 212.229H205.585Z" fill="black"/>
<path d="M258.09 193.955C253.817 185.606 247.196 178.58 239.408 173.417C231.596 168.262 222.632 165.122 213.315 164.278C212.093 164.167 210.869 164.102 209.641 164.083C208.191 164.061 186.375 170.364 179.067 175.51C171.763 180.594 165.755 187.327 161.527 195.165C157.306 203.046 155.23 211.901 155.507 220.839C155.869 229.832 158.371 238.608 162.806 246.435C167.18 254.238 173.391 260.851 180.898 265.702C188.513 270.568 196.161 283.471 205.151 283.926C214.209 284.385 224.539 272.214 232.8 268.518C241.062 264.792 248.204 258.962 253.515 251.609C258.675 244.404 262.014 236.052 263.244 227.27C264.522 218.279 263.926 209.005 260.861 200.411C260.074 198.203 259.149 196.047 258.09 193.955C257.207 192.212 254.617 191.571 252.996 192.617C252.161 193.133 251.556 193.95 251.308 194.901C251.059 195.851 251.185 196.861 251.661 197.72C252.179 198.743 252.662 199.784 253.108 200.841L252.733 199.95C254.42 204.015 255.568 208.285 256.146 212.649L256.013 211.658C256.628 216.393 256.617 221.188 255.98 225.92L256.113 224.929C255.47 229.66 254.209 234.287 252.363 238.689L252.738 237.799C251.789 240.045 250.682 242.221 249.426 244.312C248.79 245.368 248.115 246.399 247.401 247.405C247.087 247.847 246.764 248.281 246.438 248.714C246.013 249.278 247.017 247.976 246.578 248.53C246.503 248.624 246.429 248.719 246.354 248.813C246.128 249.095 245.9 249.375 245.668 249.652C244.12 251.502 242.431 253.228 240.616 254.815C240.164 255.211 239.704 255.597 239.237 255.974C239.004 256.163 238.774 256.359 238.532 256.534C238.541 256.527 239.316 255.937 238.857 256.28C238.713 256.387 238.57 256.497 238.425 256.604C237.462 257.318 236.474 257.997 235.459 258.638C233.124 260.112 230.675 261.395 228.134 262.474L229.024 262.098C224.641 263.946 220.035 265.208 215.324 265.853L216.313 265.72C211.604 266.357 206.832 266.365 202.121 265.745L203.111 265.878C198.829 265.302 194.641 264.168 190.652 262.504L191.542 262.88C189.232 261.903 187.004 260.741 184.882 259.404C183.831 258.741 182.808 258.037 181.812 257.292C181.67 257.186 181.529 257.078 181.387 256.971C180.933 256.628 181.714 257.225 181.72 257.229C181.456 257.039 181.202 256.836 180.958 256.62C180.477 256.227 180.003 255.826 179.538 255.416C177.673 253.771 175.932 251.991 174.328 250.09C173.927 249.615 173.534 249.133 173.15 248.643C172.983 248.431 172.68 248.001 173.35 248.906C173.262 248.787 173.171 248.67 173.082 248.552C172.868 248.268 172.657 247.981 172.448 247.693C171.719 246.682 171.026 245.647 170.369 244.587C168.885 242.187 167.589 239.676 166.494 237.074L166.87 237.965C165.078 233.696 163.853 229.209 163.226 224.621L163.359 225.612C162.793 221.383 162.785 217.097 163.335 212.865L163.202 213.856C163.766 209.758 164.866 205.753 166.475 201.943L166.1 202.834C167.113 200.449 168.307 198.145 169.672 195.944C170.356 194.842 171.08 193.767 171.845 192.719C172.019 192.481 172.195 192.244 172.373 192.009C172.534 191.796 172.976 191.267 172.221 192.202C172.295 192.111 172.366 192.016 172.439 191.924C172.859 191.391 173.289 190.866 173.73 190.35C175.397 188.395 177.202 186.564 179.133 184.87C179.621 184.442 180.116 184.023 180.619 183.612C180.848 183.426 181.078 183.242 181.31 183.059C181.403 182.986 181.496 182.914 181.589 182.841C180.597 183.631 181.313 183.056 181.538 182.887C182.575 182.109 183.64 181.369 184.733 180.669C187.162 179.113 189.717 177.764 192.371 176.637L191.482 177.013C195.334 175.393 212.402 171.569 215.507 171.986L214.517 171.853C219.079 172.491 223.539 173.725 227.781 175.524L226.892 175.148C229.042 176.062 231.131 177.113 233.147 178.295C234.154 178.886 235.142 179.51 236.11 180.166C236.567 180.476 237.021 180.794 237.469 181.118C237.693 181.28 237.916 181.444 238.137 181.61C238.26 181.702 238.382 181.795 238.505 181.887C239.021 182.275 237.795 181.326 238.335 181.755C240.146 183.179 241.865 184.716 243.482 186.356C244.277 187.166 245.044 188.002 245.784 188.864C246.164 189.307 246.536 189.755 246.9 190.211C247.08 190.437 247.696 191.255 246.941 190.253C247.126 190.498 247.313 190.741 247.495 190.988C249.063 193.115 250.457 195.366 251.661 197.72C252.551 199.459 255.129 200.108 256.755 199.058C257.59 198.543 258.195 197.725 258.444 196.775C258.693 195.824 258.566 194.815 258.09 193.955Z" fill="#3F3D56"/>
<path d="M47.2849 223.76C50.3008 223.76 52.7457 221.311 52.7457 218.29C52.7457 215.269 50.3008 212.82 47.2849 212.82C44.269 212.82 41.8241 215.269 41.8241 218.29C41.8241 221.311 44.269 223.76 47.2849 223.76Z" fill="#3F3D56"/>
<path d="M112.814 283.429C115.83 283.429 118.275 280.98 118.275 277.959C118.275 274.939 115.83 272.49 112.814 272.49C109.799 272.49 107.354 274.939 107.354 277.959C107.354 280.98 109.799 283.429 112.814 283.429Z" fill="#3F3D56"/>
<path d="M361.529 283.429C364.545 283.429 366.989 280.98 366.989 277.959C366.989 274.939 364.545 272.49 361.529 272.49C358.513 272.49 356.068 274.939 356.068 277.959C356.068 280.98 358.513 283.429 361.529 283.429Z" fill="#3F3D56"/>
<path d="M374.932 213.815C377.948 213.815 380.393 211.366 380.393 208.345C380.393 205.324 377.948 202.876 374.932 202.876C371.917 202.876 369.472 205.324 369.472 208.345C369.472 211.366 371.917 213.815 374.932 213.815Z" fill="#3F3D56"/>
<path d="M359.047 163.096C362.063 163.096 364.508 160.647 364.508 157.626C364.508 154.606 362.063 152.157 359.047 152.157C356.031 152.157 353.586 154.606 353.586 157.626C353.586 160.647 356.031 163.096 359.047 163.096Z" fill="#3F3D56"/>
<path d="M131.183 208.345C131.179 209.742 130.64 211.085 129.676 212.095C128.712 213.105 127.397 213.705 126.004 213.771C124.611 213.837 123.245 213.364 122.191 212.45C121.136 211.535 120.472 210.25 120.337 208.859C120.202 207.469 120.606 206.079 121.465 204.979C122.325 203.878 123.573 203.151 124.953 202.947C126.333 202.743 127.739 203.078 128.879 203.883C130.019 204.688 130.806 205.901 131.078 207.271C131.148 207.625 131.183 207.985 131.183 208.345Z" fill="#3F3D56"/>
<path d="M240.399 179.008C243.414 179.008 245.859 176.559 245.859 173.538C245.859 170.517 243.414 168.069 240.399 168.069C237.383 168.069 234.938 170.517 234.938 173.538C234.938 176.559 237.383 179.008 240.399 179.008Z" fill="#3F3D56"/>
<path d="M186.287 173.538C186.284 174.935 185.744 176.278 184.78 177.288C183.816 178.298 182.502 178.898 181.108 178.964C179.715 179.03 178.35 178.557 177.295 177.642C176.24 176.728 175.577 175.443 175.442 174.052C175.307 172.662 175.71 171.272 176.57 170.172C177.429 169.071 178.678 168.343 180.058 168.139C181.438 167.935 182.843 168.271 183.983 169.076C185.123 169.881 185.911 171.094 186.183 172.464C186.253 172.818 186.288 173.178 186.287 173.538Z" fill="#3F3D56"/>
<path d="M115.793 157.626C115.79 159.024 115.25 160.366 114.286 161.376C113.323 162.386 112.008 162.986 110.615 163.052C109.221 163.118 107.856 162.645 106.801 161.731C105.746 160.816 105.083 159.531 104.948 158.14C104.813 156.75 105.217 155.36 106.076 154.26C106.935 153.159 108.184 152.432 109.564 152.228C110.944 152.024 112.349 152.359 113.489 153.164C114.629 153.969 115.417 155.182 115.689 156.552C115.759 156.906 115.794 157.266 115.793 157.626Z" fill="#3F3D56"/>
<path d="M297.489 225.749C300.505 225.749 302.949 223.3 302.949 220.279C302.949 217.258 300.505 214.809 297.489 214.809C294.473 214.809 292.028 217.258 292.028 220.279C292.028 223.3 294.473 225.749 297.489 225.749Z" fill="#3F3D56"/>
<path d="M211.605 176.024C215.992 176.024 219.548 172.462 219.548 168.069C219.548 163.675 215.992 160.113 211.605 160.113C207.218 160.113 203.662 163.675 203.662 168.069C203.662 172.462 207.218 176.024 211.605 176.024Z" fill="#3F3D56"/>
<path d="M426.409 283.847L0.591093 284C0.513469 284 0.436603 283.985 0.364888 283.955C0.293173 283.925 0.228015 283.882 0.173127 283.827C0.118238 283.772 0.0746934 283.706 0.044988 283.635C0.0152826 283.563 0 283.486 0 283.408C0 283.33 0.0152826 283.253 0.044988 283.181C0.0746934 283.11 0.118238 283.044 0.173127 282.989C0.228015 282.934 0.293173 282.891 0.364888 282.861C0.436603 282.831 0.513469 282.816 0.591093 282.816L426.409 282.663C426.565 282.664 426.715 282.726 426.826 282.837C426.936 282.948 426.998 283.098 426.998 283.255C426.998 283.412 426.936 283.562 426.826 283.673C426.715 283.784 426.565 283.847 426.409 283.847Z" fill="#CACACA"/>
</svg>
