<svg
      width="24"
      height="20"
      viewBox="0 0 24 20"
      fill="none"
      xmlns="http://www.w3.org/2000/svg"
    >
      <path
        d="M2 0.5C1.17157 0.5 0.5 1.17157 0.5 2C0.5 2.82843 1.17157 3.5 2 3.5V0.5ZM22 3.5C22.8284 3.5 23.5 2.82843 23.5 2C23.5 1.17157 22.8284 0.5 22 0.5V3.5ZM2 3.5H22V0.5H2V3.5Z"
        fill="#004787"
      />
      <path
        d="M2 8.5C1.17157 8.5 0.5 9.17157 0.5 10C0.5 10.8284 1.17157 11.5 2 11.5V8.5ZM13 11.5C13.8284 11.5 14.5 10.8284 14.5 10C14.5 9.17157 13.8284 8.5 13 8.5V11.5ZM2 11.5H13V8.5H2V11.5Z"
        fill="#004787"
      />
      <path
        d="M2 16.5C1.17157 16.5 0.5 17.1716 0.5 18C0.5 18.8284 1.17157 19.5 2 19.5V16.5ZM22 19.5C22.8284 19.5 23.5 18.8284 23.5 18C23.5 17.1716 22.8284 16.5 22 16.5V19.5ZM2 19.5H22V16.5H2V19.5Z"
        fill="#004787"
      />
    </svg>