<svg
      width="21"
      height="21"
      viewBox="0 0 21 21"
      fill="none"
      xmlns="http://www.w3.org/2000/svg"
    >
      <path
        d="M18.8647 2.18408C18.8048 2.11822 18.7321 2.06521 18.6511 2.02823C18.5701 1.99125 18.4825 1.97107 18.3934 1.96893C18.3044 1.96678 18.2159 1.9827 18.1332 2.01574C18.0505 2.04877 17.9754 2.09822 17.9123 2.16111L17.405 2.66601C17.3435 2.72754 17.3089 2.81097 17.3089 2.89796C17.3089 2.98494 17.3435 3.06837 17.405 3.1299L17.8701 3.5942C17.9006 3.62483 17.9368 3.64913 17.9767 3.66572C18.0166 3.68231 18.0594 3.69084 18.1026 3.69084C18.1459 3.69084 18.1887 3.68231 18.2286 3.66572C18.2685 3.64913 18.3047 3.62483 18.3352 3.5942L18.8299 3.10201C19.0801 2.85222 19.1034 2.44535 18.8647 2.18408ZM16.3792 3.6914L8.97503 11.0824C8.93014 11.1271 8.89751 11.1826 8.88028 11.2436L8.5378 12.2637C8.5296 12.2914 8.52902 12.3207 8.53612 12.3487C8.54322 12.3767 8.55775 12.4022 8.57816 12.4227C8.59857 12.4431 8.62412 12.4576 8.6521 12.4647C8.68008 12.4718 8.70946 12.4712 8.73714 12.463L9.75638 12.1205C9.81735 12.1033 9.87286 12.0707 9.91757 12.0258L17.3086 4.62082C17.377 4.55171 17.4153 4.45841 17.4153 4.36119C17.4153 4.26397 17.377 4.17067 17.3086 4.10156L16.9005 3.6914C16.8313 3.6224 16.7375 3.58365 16.6398 3.58365C16.5421 3.58365 16.4484 3.6224 16.3792 3.6914Z"
        fill="#004787"
      />
      <path
        d="M15.846 7.94309L10.8466 12.9523C10.6534 13.146 10.4159 13.2898 10.1546 13.3711L9.09234 13.7267C8.84023 13.7979 8.5737 13.8006 8.3202 13.7345C8.06671 13.6684 7.83543 13.5359 7.65018 13.3506C7.46494 13.1654 7.33244 12.9341 7.26634 12.6806C7.20024 12.4271 7.20293 12.1606 7.27412 11.9085L7.62973 10.8462C7.71083 10.585 7.85428 10.3476 8.04768 10.1542L13.0569 5.15402C13.1028 5.10816 13.1341 5.04971 13.1468 4.98606C13.1595 4.92241 13.153 4.85643 13.1282 4.79646C13.1034 4.73649 13.0614 4.68522 13.0075 4.64914C12.9535 4.61306 12.8901 4.59378 12.8252 4.59375H4.26562C3.65646 4.59375 3.07224 4.83574 2.64149 5.26649C2.21074 5.69724 1.96875 6.28146 1.96875 6.89062V16.7344C1.96875 17.3435 2.21074 17.9278 2.64149 18.3585C3.07224 18.7893 3.65646 19.0312 4.26562 19.0312H14.1094C14.7185 19.0312 15.3028 18.7893 15.7335 18.3585C16.1643 17.9278 16.4062 17.3435 16.4062 16.7344V8.17482C16.4062 8.10992 16.3869 8.04649 16.3509 7.99255C16.3148 7.9386 16.2635 7.89657 16.2035 7.87176C16.1436 7.84696 16.0776 7.8405 16.0139 7.85319C15.9503 7.86589 15.8918 7.89717 15.846 7.94309Z"
        fill="#004787"
      />
    </svg>