<svg width="621" height="402" viewBox="0 0 621 402" fill="none" xmlns="http://www.w3.org/2000/svg">
<path d="M566.418 400.811L548.681 347.371C548.681 347.371 568.19 366.849 568.19 382.831L564.689 345.872C564.689 345.872 574.693 359.357 573.693 379.834C572.692 400.312 566.418 400.811 566.418 400.811Z" fill="#E6E6E6"/>
<path d="M185.53 352.151L168.22 299.995C168.22 299.995 187.26 319.005 187.26 334.603L183.843 298.533C183.843 298.533 193.607 311.694 192.63 331.679C191.654 351.664 185.53 352.151 185.53 352.151Z" fill="#E6E6E6"/>
<path d="M455.708 376.219C455.738 410.528 387.583 399.974 304.146 400.046C220.708 400.118 153.584 410.788 153.554 376.479C153.525 342.17 221.655 334.65 305.092 334.578C388.53 334.506 455.679 341.91 455.708 376.219Z" fill="#E6E6E6"/>
<path d="M621 400.026H0V401.596H621V400.026Z" fill="#3F3D56"/>
<path d="M397.232 329.884H386.324L381.133 287.876H397.232V329.884Z" fill="#A0616A"/>
<path d="M377.321 326.773H399.57V339.998H365.287V338.788C365.287 335.601 366.555 332.545 368.812 330.292C371.068 328.039 374.129 326.773 377.321 326.773Z" fill="#2F2E41"/>
<path d="M477.412 391.887H466.504L461.312 349.878H477.412V391.887Z" fill="#A0616A"/>
<path d="M457.501 388.775H479.75V402H445.467V400.79C445.467 397.603 446.734 394.547 448.991 392.294C451.248 390.041 454.309 388.775 457.501 388.775Z" fill="#2F2E41"/>
<path d="M527.728 267.087C528.482 266.174 529.027 265.107 529.323 263.961C529.62 262.815 529.661 261.618 529.444 260.454C529.227 259.29 528.757 258.188 528.067 257.226C527.377 256.263 526.485 255.463 525.452 254.882L500.116 151.839L483.917 158.797L514.052 258.432C513.189 260.229 513.017 262.279 513.568 264.195C514.118 266.11 515.354 267.758 517.039 268.824C518.725 269.891 520.744 270.304 522.714 269.984C524.684 269.663 526.468 268.633 527.728 267.087Z" fill="#A0616A"/>
<path d="M443.347 256.401L460.458 384.623L481.756 380.245C481.756 380.245 478.624 286.864 489.273 275.607C499.921 264.349 475.576 244.628 475.576 244.628L443.347 256.401Z" fill="#2F2E41"/>
<path d="M450.422 221.083L442.561 232.856C442.561 232.856 382.033 207.742 382.033 247.768C382.033 287.794 378.569 314.957 377.316 316.833C376.064 318.71 391.81 323.578 399.327 322.327C399.327 322.327 408.6 257.799 407.973 254.046C407.973 254.046 467.349 283.112 478.624 280.61C489.899 278.108 492.563 269.253 494.442 264.249C496.321 259.246 493.656 219.514 493.656 219.514L456.073 208.062L450.422 221.083Z" fill="#2F2E41"/>
<path d="M472.273 64.5297C471.072 64.0143 469.772 63.7683 468.465 63.8091C467.157 63.8499 465.875 64.1765 464.707 64.7658C463.539 65.3552 462.515 66.193 461.706 67.2202C460.897 68.2474 460.323 69.4391 460.025 70.7112L425.684 90.1708L437.076 101.741L467.3 81.6722C469.472 82.0289 471.7 81.577 473.563 80.4023C475.426 79.2276 476.793 77.4117 477.406 75.2987C478.019 73.1856 477.835 70.9223 476.889 68.9375C475.943 66.9527 474.3 65.3844 472.273 64.5297Z" fill="#A0616A"/>
<path d="M456.055 170.887L452.944 169.292C452.944 169.292 407.818 127.205 410.949 109.35C414.08 91.4958 452.805 72.6277 454.392 72.9261C455.979 73.2245 456.325 85.6986 461.31 89.4151C461.31 89.4151 433.453 109.076 431.74 110.775C430.027 112.475 460.905 135.292 460.905 135.292L466.709 154.7L456.055 170.887Z" fill="#CCCCCC"/>
<path d="M495.397 122.661C495.397 122.661 472.095 125.346 471.199 125.346C470.303 125.346 469.855 119.529 469.855 119.529L449.241 147.716C449.241 147.716 439.086 229.489 441.775 228.147C444.463 226.805 494.053 234.513 494.501 230.934C494.949 227.355 494.053 209.458 495.397 208.563C496.742 207.669 518.699 152.19 518.699 152.19C518.699 152.19 516.459 140.557 508.841 136.531C501.223 132.504 495.397 122.661 495.397 122.661Z" fill="#CCCCCC"/>
<path d="M511.529 144.584L518.699 152.19C518.699 152.19 529.352 239.589 523.527 242.274C517.701 244.958 506.233 244.628 506.233 244.628L494.949 203.195L511.529 144.584Z" fill="#CCCCCC"/>
<path d="M284.341 366.122C311.687 366.122 333.855 343.988 333.855 316.685C333.855 289.382 311.687 267.249 284.341 267.249C256.995 267.249 234.826 289.382 234.826 316.685C234.826 343.988 256.995 366.122 284.341 366.122Z" fill="#FF5B5B"/>
<path d="M251.274 263.736C244.412 263.737 237.696 261.751 231.941 258.02C226.185 254.289 221.636 248.972 218.844 242.714L140.274 66.0532C137.672 60.2013 136.295 53.8798 136.229 47.4772C136.164 41.0746 137.41 34.7263 139.892 28.8224C142.374 22.9185 146.039 17.5837 150.662 13.146C155.285 8.70838 160.768 5.26157 166.774 3.01745C172.781 0.773329 179.183 -0.220674 185.588 0.096546C191.993 0.413766 198.266 2.0355 204.02 4.86207C209.774 7.68864 214.889 11.6603 219.049 16.533C223.21 21.4057 226.328 27.0764 228.213 33.1965L285.107 217.957C286.736 223.245 287.1 228.841 286.169 234.296C285.239 239.75 283.04 244.911 279.75 249.363C276.46 253.815 272.17 257.434 267.224 259.931C262.279 262.427 256.816 263.73 251.274 263.736H251.274Z" fill="#FF5B5B"/>
<path d="M505.717 94.8293C505.696 89.0507 503.38 83.5168 499.277 79.442C495.175 75.3673 489.622 73.0848 483.837 73.0955C478.051 73.1062 472.507 75.4092 468.42 79.4991C464.333 83.5889 462.037 89.1314 462.037 94.91C462.037 100.689 464.333 106.231 468.42 110.321C472.507 114.411 478.051 116.714 483.837 116.724C489.622 116.735 495.175 114.453 499.277 110.378C503.38 106.303 505.696 100.769 505.717 94.9907C505.717 94.9369 505.717 94.8831 505.717 94.8293Z" fill="#9F616A"/>
<path d="M474.099 82.3645C475.23 81.301 476.72 80.7007 478.274 80.6825C480.607 80.6068 484.103 81.4344 485.591 83.3291C486.787 84.8519 486.844 86.9469 486.849 88.8822L486.861 94.2235C486.865 95.8037 486.884 97.4514 487.603 98.8591C488.322 100.267 489.972 101.336 491.479 100.856C493.267 100.287 494.054 97.9132 495.881 97.4863C497.253 97.1657 498.663 98.1675 499.263 99.4414C499.77 100.762 499.938 102.188 499.752 103.59C499.579 106.387 495.563 107.496 494.994 110.24C494.665 111.827 493.514 114.994 494.994 114.33C501.819 113.648 504.814 109.667 507.938 105.919L514.982 97.4659C515.787 96.6266 516.405 95.6273 516.797 94.5331C516.971 93.7667 517.034 92.979 516.983 92.1946C516.944 90.0935 516.887 87.9931 516.811 85.8932C516.745 84.0584 516.283 81.7435 514.484 81.3665C513.548 81.1704 512.31 81.5123 511.815 80.6952C511.63 80.2855 511.6 79.8226 511.731 79.3925C512.128 77.2955 512.798 75.1022 512.107 73.0827C511.065 70.037 507.477 68.7873 504.306 68.2126C501.135 67.638 497.576 67.1437 495.586 64.6122C495.053 63.7716 494.475 62.9604 493.855 62.1821C492.942 61.3531 491.82 60.788 490.61 60.5475C486.674 59.5525 482.517 59.9211 478.817 61.5929C477.284 62.2919 475.743 63.2333 474.061 63.1268C472.313 63.0162 470.82 61.7877 469.095 61.4888C466.308 61.006 463.644 63.0915 462.27 65.5614C460.568 68.6217 460.412 72.8127 462.816 75.36C464.016 76.6309 465.805 77.5038 466.303 79.178C466.506 79.8594 466.459 80.5933 466.638 81.2813C466.847 81.9661 467.245 82.578 467.787 83.0464C468.329 83.5148 468.993 83.8206 469.701 83.9286C471.406 84.2059 472.847 83.4261 474.099 82.3645Z" fill="#2F2E41"/>
</svg>
